<?xml version="1.0" encoding="utf-8"?>
<svg xmlns="http://www.w3.org/2000/svg" xmlns:xlink="http://www.w3.org/1999/xlink" style="margin: auto; background: rgb(241, 242, 243); display: block; z-index: 1; position: relative; shape-rendering: auto;" width="1440" height="763" preserveAspectRatio="xMidYMid" viewBox="0 0 1440 763">
<g transform="translate(720,381.5) scale(1,1) translate(-720,-381.5)"><path d="M-100 453.33C-72.85 446.27 -72.21 455.38 -47.1 455.38S-20.02 459.95 5.81 459.95S32.89 451.86 58.71 451.86S86.69 453.19 111.61 453.19S138.53 449.75 164.52 449.75S192.86 454.6 217.42 454.6S245 458.21 270.32 458.21S298.07 460.22 323.23 460.22S351.16 455.84 376.13 455.84S403.72 448.32 429.03 448.32S456.84 453.21 481.94 453.21S508.6 454.49 534.84 454.49S561.8 450.18 587.74 450.18S615.05 461.16 640.65 461.16S667.44 453.37 693.55 453.37S720.61 456.7 746.45 456.7S773.76 449.56 799.35 449.56S827.54 444.88 852.26 444.88S879.8 459.14 905.16 459.14S931.85 450.97 958.06 450.97S985.94 444.54 1010.97 444.54S1038.67 453.6 1063.87 453.6S1090.82 443.95 1116.77 443.95S1144.96 455.91 1169.68 455.91S1197.61 443.57 1222.58 443.57S1249.3 459.61 1275.48 459.61S1303.03 444.78 1328.39 444.78S1355.37 444.82 1381.29 444.82S1407.78 452.25 1434.19 452.25S1461.85 457.13 1487.1 457.13S1514.48 445.24 1540 445.24S1568.09 457.54 1592.9 457.54L1540 763 L-100 763 Z" fill="#93dbe9" stroke-width="0">
  <animate attributeName="d" dur="25s" repeatCount="indefinite" values="M-100 453.33C-72.85 446.27 -72.21 455.38 -47.1 455.38S-20.02 459.95 5.81 459.95S32.89 451.86 58.71 451.86S86.69 453.19 111.61 453.19S138.53 449.75 164.52 449.75S192.86 454.6 217.42 454.6S245 458.21 270.32 458.21S298.07 460.22 323.23 460.22S351.16 455.84 376.13 455.84S403.72 448.32 429.03 448.32S456.84 453.21 481.94 453.21S508.6 454.49 534.84 454.49S561.8 450.18 587.74 450.18S615.05 461.16 640.65 461.16S667.44 453.37 693.55 453.37S720.61 456.7 746.45 456.7S773.76 449.56 799.35 449.56S827.54 444.88 852.26 444.88S879.8 459.14 905.16 459.14S931.85 450.97 958.06 450.97S985.94 444.54 1010.97 444.54S1038.67 453.6 1063.87 453.6S1090.82 443.95 1116.77 443.95S1144.96 455.91 1169.68 455.91S1197.61 443.57 1222.58 443.57S1249.3 459.61 1275.48 459.61S1303.03 444.78 1328.39 444.78S1355.37 444.82 1381.29 444.82S1407.78 452.25 1434.19 452.25S1461.85 457.13 1487.1 457.13S1514.48 445.24 1540 445.24S1568.09 457.54 1592.9 457.54L1540 763 L-100 763 Z;M-100 460.93C-73.34 453.42 -72.88 450.28 -47.1 450.28S-20.57 453.68 5.81 453.68S32.44 451.11 58.71 451.11S86.98 446.89 111.61 446.89S138.27 454.92 164.52 454.92S191.87 457.49 217.42 457.49S244.05 443.76 270.32 443.76S297.54 455.93 323.23 455.93S349.83 456.33 376.13 456.33S403.03 447.25 429.03 447.25S456.76 458.88 481.94 458.88S508.59 442.55 534.84 442.55S563.01 452.23 587.74 452.23S615.44 454.78 640.65 454.78S668.26 459.82 693.55 459.82S720.55 449.75 746.45 449.75S773.41 459.82 799.35 459.82S826.33 458.67 852.26 458.67S878.74 454.63 905.16 454.63S932.73 449.28 958.06 449.28S984.71 451.07 1010.97 451.07S1038.27 451.26 1063.87 451.26S1091.62 461.38 1116.77 461.38S1144.04 442.87 1169.68 442.87S1196.6 444.7 1222.58 444.7S1249.82 457.28 1275.48 457.28S1303.36 444.89 1328.39 444.89S1354.93 445.48 1381.29 445.48S1408.2 447.6 1434.19 447.6S1461.63 459.53 1487.1 459.53S1514.36 444.76 1540 444.76S1567.52 449.98 1592.9 449.98L1540 763 L-100 763 Z;M-100 453.33C-72.85 446.27 -72.21 455.38 -47.1 455.38S-20.02 459.95 5.81 459.95S32.89 451.86 58.71 451.86S86.69 453.19 111.61 453.19S138.53 449.75 164.52 449.75S192.86 454.6 217.42 454.6S245 458.21 270.32 458.21S298.07 460.22 323.23 460.22S351.16 455.84 376.13 455.84S403.72 448.32 429.03 448.32S456.84 453.21 481.94 453.21S508.6 454.49 534.84 454.49S561.8 450.18 587.74 450.18S615.05 461.16 640.65 461.16S667.44 453.37 693.55 453.37S720.61 456.7 746.45 456.7S773.76 449.56 799.35 449.56S827.54 444.88 852.26 444.88S879.8 459.14 905.16 459.14S931.85 450.97 958.06 450.97S985.94 444.54 1010.97 444.54S1038.67 453.6 1063.87 453.6S1090.82 443.95 1116.77 443.95S1144.96 455.91 1169.68 455.91S1197.61 443.57 1222.58 443.57S1249.3 459.61 1275.48 459.61S1303.03 444.78 1328.39 444.78S1355.37 444.82 1381.29 444.82S1407.78 452.25 1434.19 452.25S1461.85 457.13 1487.1 457.13S1514.48 445.24 1540 445.24S1568.09 457.54 1592.9 457.54L1540 763 L-100 763 Z"></animate>
  <animateTransform attributeName="transform" type="translate" dur="25s" begin="0s" repeatCount="indefinite" values="0;10;0" calcMode="spline" keySplines="0.3 0 0.7 1;0.3 0 0.7 1"></animateTransform>
</path><path d="M-100 473.44C-72.55 464.38 -71.04 476.97 -45.7 476.97S-18.52 467.56 8.61 467.56S36.02 481.89 62.91 481.89S90.8 479.79 117.22 479.79S145.32 478.17 171.52 478.17S199.74 465.23 225.83 465.23S253.87 481.52 280.13 481.52S308.58 479.91 334.44 479.91S363.02 482.27 388.74 482.27S417.38 475.67 443.05 475.67S470.6 468.02 497.35 468.02S526.4 479 551.66 479S579.2 469.22 605.96 469.22S633.34 474.14 660.26 474.14S687.81 480.43 714.57 480.43S741.85 472.26 768.87 472.26S797.02 482.75 823.18 482.75S852.23 477.17 877.48 477.17S906.19 474.54 931.79 474.54S959.99 479.7 986.09 479.7S1014.79 476.59 1040.4 476.59S1068.61 472.38 1094.7 472.38S1122.56 465.53 1149.01 465.53S1177.41 472.64 1203.31 472.64S1231.8 483.37 1257.62 483.37S1285.29 476.6 1311.92 476.6S1340.85 473.32 1366.23 473.32S1395.27 476.91 1420.53 476.91S1447.84 474.98 1474.83 474.98S1502.15 462.74 1529.14 462.74S1557.61 479.64 1583.44 479.64L1540 763 L-100 763 Z" fill="#8dd5e6" stroke-width="0">
  <animate attributeName="d" dur="22.5s" repeatCount="indefinite" values="M-100 473.44C-72.55 464.38 -71.04 476.97 -45.7 476.97S-18.52 467.56 8.61 467.56S36.02 481.89 62.91 481.89S90.8 479.79 117.22 479.79S145.32 478.17 171.52 478.17S199.74 465.23 225.83 465.23S253.87 481.52 280.13 481.52S308.58 479.91 334.44 479.91S363.02 482.27 388.74 482.27S417.38 475.67 443.05 475.67S470.6 468.02 497.35 468.02S526.4 479 551.66 479S579.2 469.22 605.96 469.22S633.34 474.14 660.26 474.14S687.81 480.43 714.57 480.43S741.85 472.26 768.87 472.26S797.02 482.75 823.18 482.75S852.23 477.17 877.48 477.17S906.19 474.54 931.79 474.54S959.99 479.7 986.09 479.7S1014.79 476.59 1040.4 476.59S1068.61 472.38 1094.7 472.38S1122.56 465.53 1149.01 465.53S1177.41 472.64 1203.31 472.64S1231.8 483.37 1257.62 483.37S1285.29 476.6 1311.92 476.6S1340.85 473.32 1366.23 473.32S1395.27 476.91 1420.53 476.91S1447.84 474.98 1474.83 474.98S1502.15 462.74 1529.14 462.74S1557.61 479.64 1583.44 479.64L1540 763 L-100 763 Z;M-100 465.62C-71.07 474.42 -72.49 463.71 -45.7 463.71S-16.65 472.98 8.61 472.98S35.84 482.03 62.91 482.03S90.82 465.33 117.22 465.33S146.24 472.95 171.52 472.95S199.43 477.54 225.83 477.54S253.57 475.82 280.13 475.82S308.19 476.98 334.44 476.98S362.66 480.16 388.74 480.16S416.51 477.67 443.05 477.67S471.64 471.28 497.35 471.28S525.19 468.56 551.66 468.56S579.22 475.36 605.96 475.36S633.47 470.49 660.26 470.49S688.96 476.04 714.57 476.04S742.39 462.53 768.87 462.53S797.88 477.91 823.18 477.91S851.01 475.74 877.48 475.74S906.2 469.17 931.79 469.17S959.7 469.2 986.09 469.2S1013.71 475.71 1040.4 475.71S1067.94 475.94 1094.7 475.94S1123.74 482.74 1149.01 482.74S1177.1 471.15 1203.31 471.15S1230.67 474.57 1257.62 474.57S1284.92 481 1311.92 481S1340.79 471.45 1366.23 471.45S1395.27 479.35 1420.53 479.35S1448.83 477.68 1474.83 477.68S1502.44 466.8 1529.14 466.8S1556.79 476.09 1583.44 476.09L1540 763 L-100 763 Z;M-100 473.44C-72.55 464.38 -71.04 476.97 -45.7 476.97S-18.52 467.56 8.61 467.56S36.02 481.89 62.91 481.89S90.8 479.79 117.22 479.79S145.32 478.17 171.52 478.17S199.74 465.23 225.83 465.23S253.87 481.52 280.13 481.52S308.58 479.91 334.44 479.91S363.02 482.27 388.74 482.27S417.38 475.67 443.05 475.67S470.6 468.02 497.35 468.02S526.4 479 551.66 479S579.2 469.22 605.96 469.22S633.34 474.14 660.26 474.14S687.81 480.43 714.57 480.43S741.85 472.26 768.87 472.26S797.02 482.75 823.18 482.75S852.23 477.17 877.48 477.17S906.19 474.54 931.79 474.54S959.99 479.7 986.09 479.7S1014.79 476.59 1040.4 476.59S1068.61 472.38 1094.7 472.38S1122.56 465.53 1149.01 465.53S1177.41 472.64 1203.31 472.64S1231.8 483.37 1257.62 483.37S1285.29 476.6 1311.92 476.6S1340.85 473.32 1366.23 473.32S1395.27 476.91 1420.53 476.91S1447.84 474.98 1474.83 474.98S1502.15 462.74 1529.14 462.74S1557.61 479.64 1583.44 479.64L1540 763 L-100 763 Z"></animate>
  <animateTransform attributeName="transform" type="translate" dur="22.5s" begin="-2.25s" repeatCount="indefinite" values="0;10;0" calcMode="spline" keySplines="0.3 0 0.7 1;0.3 0 0.7 1"></animateTransform>
</path><path d="M-100 492.33C-70.97 482.88 -71.24 503.36 -44.22 503.36S-15.91 483.03 11.56 483.03S40.85 495.02 67.35 495.02S95.25 498.01 123.13 498.01S151.04 500.7 178.91 500.7S207.11 505.6 234.69 505.6S263.35 502.28 290.48 502.28S318.67 484.67 346.26 484.67S374.68 497.34 402.04 497.34S431.13 494.26 457.82 494.26S486.91 488.79 513.61 488.79S541.92 483.95 569.39 483.95S598.48 502.74 625.17 502.74S654.21 492.5 680.95 492.5S709.5 499.97 736.73 499.97S766.21 492.81 792.52 492.81S820.86 502.06 848.3 502.06S877.69 505.12 904.08 505.12S931.98 492.08 959.86 492.08S988.14 495.84 1015.65 495.84S1045.44 495.49 1071.43 495.49S1099.81 491.06 1127.21 491.06S1156.28 491.4 1182.99 491.4S1212.55 494.63 1238.78 494.63S1266.85 490.46 1294.56 490.46S1323.47 489.04 1350.34 489.04S1379.8 493.93 1406.12 493.93S1434.08 481.27 1461.9 481.27S1490.59 494.19 1517.69 494.19S1547.26 494.52 1573.47 494.52L1540 763 L-100 763 Z" fill="#88cfe3" stroke-width="0">
  <animate attributeName="d" dur="20s" repeatCount="indefinite" values="M-100 492.33C-70.97 482.88 -71.24 503.36 -44.22 503.36S-15.91 483.03 11.56 483.03S40.85 495.02 67.35 495.02S95.25 498.01 123.13 498.01S151.04 500.7 178.91 500.7S207.11 505.6 234.69 505.6S263.35 502.28 290.48 502.28S318.67 484.67 346.26 484.67S374.68 497.34 402.04 497.34S431.13 494.26 457.82 494.26S486.91 488.79 513.61 488.79S541.92 483.95 569.39 483.95S598.48 502.74 625.17 502.74S654.21 492.5 680.95 492.5S709.5 499.97 736.73 499.97S766.21 492.81 792.52 492.81S820.86 502.06 848.3 502.06S877.69 505.12 904.08 505.12S931.98 492.08 959.86 492.08S988.14 495.84 1015.65 495.84S1045.44 495.49 1071.43 495.49S1099.81 491.06 1127.21 491.06S1156.28 491.4 1182.99 491.4S1212.55 494.63 1238.78 494.63S1266.85 490.46 1294.56 490.46S1323.47 489.04 1350.34 489.04S1379.8 493.93 1406.12 493.93S1434.08 481.27 1461.9 481.27S1490.59 494.19 1517.69 494.19S1547.26 494.52 1573.47 494.52L1540 763 L-100 763 Z;M-100 483.24C-70.7 481.16 -71.65 490.45 -44.22 490.45S-16.13 499 11.56 499S40.97 488.38 67.35 488.38S95.27 486.23 123.13 486.23S152.21 493.56 178.91 493.56S207.31 497.51 234.69 497.51S262.63 497.2 290.48 497.2S319.28 489.57 346.26 489.57S375.24 500.73 402.04 500.73S430.18 484.73 457.82 484.73S487.52 491.35 513.61 491.35S541.93 490.15 569.39 490.15S597.57 496.66 625.17 496.66S654.96 481.67 680.95 481.67S710.62 507.05 736.73 507.05S765.04 506.79 792.52 506.79S820.84 496.93 848.3 496.93S877.75 491.36 904.08 491.36S933.7 503.09 959.86 503.09S988.02 499.03 1015.65 499.03S1044.41 494.06 1071.43 494.06S1101.21 483.04 1127.21 483.04S1155.61 490.41 1182.99 490.41S1211.63 487.23 1238.78 487.23S1268.18 486.41 1294.56 486.41S1323.69 497.09 1350.34 497.09S1379.02 496.03 1406.12 496.03S1435.66 504.73 1461.9 504.73S1490.14 503.24 1517.69 503.24S1547.42 486.31 1573.47 486.31L1540 763 L-100 763 Z;M-100 492.33C-70.97 482.88 -71.24 503.36 -44.22 503.36S-15.91 483.03 11.56 483.03S40.85 495.02 67.35 495.02S95.25 498.01 123.13 498.01S151.04 500.7 178.91 500.7S207.11 505.6 234.69 505.6S263.35 502.28 290.48 502.28S318.67 484.67 346.26 484.67S374.68 497.34 402.04 497.34S431.13 494.26 457.82 494.26S486.91 488.79 513.61 488.79S541.92 483.95 569.39 483.95S598.48 502.74 625.17 502.74S654.21 492.5 680.95 492.5S709.5 499.97 736.73 499.97S766.21 492.81 792.52 492.81S820.86 502.06 848.3 502.06S877.69 505.12 904.08 505.12S931.98 492.08 959.86 492.08S988.14 495.84 1015.65 495.84S1045.44 495.49 1071.43 495.49S1099.81 491.06 1127.21 491.06S1156.28 491.4 1182.99 491.4S1212.55 494.63 1238.78 494.63S1266.85 490.46 1294.56 490.46S1323.47 489.04 1350.34 489.04S1379.8 493.93 1406.12 493.93S1434.08 481.27 1461.9 481.27S1490.59 494.19 1517.69 494.19S1547.26 494.52 1573.47 494.52L1540 763 L-100 763 Z"></animate>
  <animateTransform attributeName="transform" type="translate" dur="20s" begin="-4s" repeatCount="indefinite" values="0;10;0" calcMode="spline" keySplines="0.3 0 0.7 1;0.3 0 0.7 1"></animateTransform>
</path><path d="M-100 514.61C-69.57 500.3 -69.71 520.86 -42.66 520.86S-12.42 517.63 14.69 517.63S44.15 512.87 72.03 512.87S101.34 524.13 129.37 524.13S159.13 514.33 186.71 514.33S215.56 505.16 244.06 505.16S272.79 516.51 301.4 516.51S331.71 505.91 358.74 505.91S387.9 521.55 416.08 521.55S444.8 501.46 473.43 501.46S503.36 520.69 530.77 520.69S560.58 510.03 588.11 510.03S617.73 511.61 645.45 511.61S675.94 516.52 702.8 516.52S731.82 514.21 760.14 514.21S788.88 520.8 817.48 520.8S847.19 511.6 874.83 511.6S905.12 509.33 932.17 509.33S961.99 525.17 989.51 525.17S1019.52 506.88 1046.85 506.88S1076.59 518.8 1104.2 518.8S1133.45 506.21 1161.54 506.21S1190.63 512.56 1218.88 512.56S1248 505.78 1276.22 505.78S1306.19 516.23 1333.57 516.23S1363.92 502.92 1390.91 502.92S1420.58 530.28 1448.25 530.28S1478.73 510.57 1505.59 510.57S1535.18 521.75 1562.94 521.75L1540 763 L-100 763 Z" fill="#83c8df" stroke-width="0">
  <animate attributeName="d" dur="17.5s" repeatCount="indefinite" values="M-100 514.61C-69.57 500.3 -69.71 520.86 -42.66 520.86S-12.42 517.63 14.69 517.63S44.15 512.87 72.03 512.87S101.34 524.13 129.37 524.13S159.13 514.33 186.71 514.33S215.56 505.16 244.06 505.16S272.79 516.51 301.4 516.51S331.71 505.91 358.74 505.91S387.9 521.55 416.08 521.55S444.8 501.46 473.43 501.46S503.36 520.69 530.77 520.69S560.58 510.03 588.11 510.03S617.73 511.61 645.45 511.61S675.94 516.52 702.8 516.52S731.82 514.21 760.14 514.21S788.88 520.8 817.48 520.8S847.19 511.6 874.83 511.6S905.12 509.33 932.17 509.33S961.99 525.17 989.51 525.17S1019.52 506.88 1046.85 506.88S1076.59 518.8 1104.2 518.8S1133.45 506.21 1161.54 506.21S1190.63 512.56 1218.88 512.56S1248 505.78 1276.22 505.78S1306.19 516.23 1333.57 516.23S1363.92 502.92 1390.91 502.92S1420.58 530.28 1448.25 530.28S1478.73 510.57 1505.59 510.57S1535.18 521.75 1562.94 521.75L1540 763 L-100 763 Z;M-100 500.66C-70.54 507.01 -71.01 529.59 -42.66 529.59S-13.94 514.36 14.69 514.36S45.05 517.92 72.03 517.92S101.49 508.41 129.37 508.41S158.3 529.47 186.71 529.47S215.65 509.2 244.06 509.2S274.47 504.95 301.4 504.95S330.71 519.19 358.74 519.19S389.09 524.73 416.08 524.73S445.86 507.2 473.43 507.2S502.67 516.99 530.77 516.99S560.47 526.23 588.11 526.23S617.92 515.15 645.45 515.15S676.03 509.07 702.8 509.07S731.89 516.15 760.14 516.15S790.28 513.48 817.48 513.48S847.83 525.53 874.83 525.53S904.64 514.9 932.17 514.9S962.37 513.94 989.51 513.94S1018.89 516 1046.85 516S1077.38 514.65 1104.2 514.65S1133.12 503.24 1161.54 503.24S1190.66 517.63 1218.88 517.63S1249.45 513.48 1276.22 513.48S1305.7 524.21 1333.57 524.21S1363.3 507.8 1390.91 507.8S1421.46 511.37 1448.25 511.37S1477.03 512.41 1505.59 512.41S1534.56 518.3 1562.94 518.3L1540 763 L-100 763 Z;M-100 514.61C-69.57 500.3 -69.71 520.86 -42.66 520.86S-12.42 517.63 14.69 517.63S44.15 512.87 72.03 512.87S101.34 524.13 129.37 524.13S159.13 514.33 186.71 514.33S215.56 505.16 244.06 505.16S272.79 516.51 301.4 516.51S331.71 505.91 358.74 505.91S387.9 521.55 416.08 521.55S444.8 501.46 473.43 501.46S503.36 520.69 530.77 520.69S560.58 510.03 588.11 510.03S617.73 511.61 645.45 511.61S675.94 516.52 702.8 516.52S731.82 514.21 760.14 514.21S788.88 520.8 817.48 520.8S847.19 511.6 874.83 511.6S905.12 509.33 932.17 509.33S961.99 525.17 989.51 525.17S1019.52 506.88 1046.85 506.88S1076.59 518.8 1104.2 518.8S1133.45 506.21 1161.54 506.21S1190.63 512.56 1218.88 512.56S1248 505.78 1276.22 505.78S1306.19 516.23 1333.57 516.23S1363.92 502.92 1390.91 502.92S1420.58 530.28 1448.25 530.28S1478.73 510.57 1505.59 510.57S1535.18 521.75 1562.94 521.75L1540 763 L-100 763 Z"></animate>
  <animateTransform attributeName="transform" type="translate" dur="17.5s" begin="-5.25s" repeatCount="indefinite" values="0;10;0" calcMode="spline" keySplines="0.3 0 0.7 1;0.3 0 0.7 1"></animateTransform>
</path><path d="M-100 522.98C-70.35 527.38 -68.93 534.79 -41.01 534.79S-10.1 523.65 17.99 523.65S47.97 537.13 76.98 537.13S106.9 523.54 135.97 523.54S167.08 544.34 194.96 544.34S225.89 533.25 253.96 533.25S284.8 540.98 312.95 540.98S343.72 547.58 371.94 547.58S401.64 530.8 430.94 530.8S460.83 528.01 489.93 528.01S519.49 535.19 548.92 535.19S580.19 535.14 607.91 535.14S638.67 545.19 666.91 545.19S696.57 537.08 725.9 537.08S756.99 535.01 784.89 535.01S815.48 526.27 843.88 526.27S873.49 543.75 902.88 543.75S933.6 530.55 961.87 530.55S992.14 551.73 1020.86 551.73S1051.02 521.81 1079.86 521.81S1109.94 541.69 1138.85 541.69S1170.13 521.45 1197.84 521.45S1229.14 544.02 1256.83 544.02S1287.64 526.08 1315.83 526.08S1346.36 545.14 1374.82 545.14S1405.95 534.47 1433.81 534.47S1464.03 541.07 1492.81 541.07S1523.52 520.17 1551.8 520.17L1540 763 L-100 763 Z" fill="#7ec2dc" stroke-width="0">
  <animate attributeName="d" dur="15s" repeatCount="indefinite" values="M-100 522.98C-70.35 527.38 -68.93 534.79 -41.01 534.79S-10.1 523.65 17.99 523.65S47.97 537.13 76.98 537.13S106.9 523.54 135.97 523.54S167.08 544.34 194.96 544.34S225.89 533.25 253.96 533.25S284.8 540.98 312.95 540.98S343.72 547.58 371.94 547.58S401.64 530.8 430.94 530.8S460.83 528.01 489.93 528.01S519.49 535.19 548.92 535.19S580.19 535.14 607.91 535.14S638.67 545.19 666.91 545.19S696.57 537.08 725.9 537.08S756.99 535.01 784.89 535.01S815.48 526.27 843.88 526.27S873.49 543.75 902.88 543.75S933.6 530.55 961.87 530.55S992.14 551.73 1020.86 551.73S1051.02 521.81 1079.86 521.81S1109.94 541.69 1138.85 541.69S1170.13 521.45 1197.84 521.45S1229.14 544.02 1256.83 544.02S1287.64 526.08 1315.83 526.08S1346.36 545.14 1374.82 545.14S1405.95 534.47 1433.81 534.47S1464.03 541.07 1492.81 541.07S1523.52 520.17 1551.8 520.17L1540 763 L-100 763 Z;M-100 527.96C-69.38 534.57 -69.34 540.56 -41.01 540.56S-11.22 534.27 17.99 534.27S48.18 551.12 76.98 551.12S107.86 523.41 135.97 523.41S165.84 550.19 194.96 550.19S226.26 540.35 253.96 540.35S283.82 533.4 312.95 533.4S344.34 522.37 371.94 522.37S402.28 540.08 430.94 540.08S460.49 528.7 489.93 528.7S520.59 552.67 548.92 552.67S579.98 530.18 607.91 530.18S637.99 549.66 666.91 549.66S698.1 524.48 725.9 524.48S755.94 538.3 784.89 538.3S814.87 520.29 843.88 520.29S873.43 551.51 902.88 551.51S933.81 522.43 961.87 522.43S991.95 548.43 1020.86 548.43S1051.62 533.4 1079.86 533.4S1111.19 535.88 1138.85 535.88S1168.57 535.33 1197.84 535.33S1228.55 542.57 1256.83 542.57S1287.89 527.43 1315.83 527.43S1347.18 536.95 1374.82 536.95S1404.36 529.86 1433.81 529.86S1463.8 530.8 1492.81 530.8S1522.76 548.96 1551.8 548.96L1540 763 L-100 763 Z;M-100 522.98C-70.35 527.38 -68.93 534.79 -41.01 534.79S-10.1 523.65 17.99 523.65S47.97 537.13 76.98 537.13S106.9 523.54 135.97 523.54S167.08 544.34 194.96 544.34S225.89 533.25 253.96 533.25S284.8 540.98 312.95 540.98S343.72 547.58 371.94 547.58S401.64 530.8 430.94 530.8S460.83 528.01 489.93 528.01S519.49 535.19 548.92 535.19S580.19 535.14 607.91 535.14S638.67 545.19 666.91 545.19S696.57 537.08 725.9 537.08S756.99 535.01 784.89 535.01S815.48 526.27 843.88 526.27S873.49 543.75 902.88 543.75S933.6 530.55 961.87 530.55S992.14 551.73 1020.86 551.73S1051.02 521.81 1079.86 521.81S1109.94 541.69 1138.85 541.69S1170.13 521.45 1197.84 521.45S1229.14 544.02 1256.83 544.02S1287.64 526.08 1315.83 526.08S1346.36 545.14 1374.82 545.14S1405.95 534.47 1433.81 534.47S1464.03 541.07 1492.81 541.07S1523.52 520.17 1551.8 520.17L1540 763 L-100 763 Z"></animate>
  <animateTransform attributeName="transform" type="translate" dur="15s" begin="-6s" repeatCount="indefinite" values="0;10;0" calcMode="spline" keySplines="0.3 0 0.7 1;0.3 0 0.7 1"></animateTransform>
</path><path d="M-100 545.05C-68.11 548.28 -69.35 550.23 -39.26 550.23S-7.49 546.34 21.48 546.34S52.4 573.74 82.22 573.74S113.12 556.76 142.96 556.76S174.33 573.1 203.7 573.1S234.68 550.6 264.44 550.6S295.56 567.54 325.19 567.54S356.82 553.99 385.93 553.99S417.72 570.79 446.67 570.79S478.66 560.78 507.41 560.78S538.18 558.19 568.15 558.19S600.36 553.6 628.89 553.6S660.84 565.27 689.63 565.27S720.04 546.01 750.37 546.01S781.22 575.03 811.11 575.03S841.68 553.73 871.85 553.73S902.83 571.13 932.59 571.13S963.88 547.63 993.33 547.63S1024.12 568.19 1054.07 568.19S1086.25 544.95 1114.81 544.95S1145.98 567.14 1175.56 567.14S1207.05 556.02 1236.3 556.02S1266.78 569.53 1297.04 569.53S1329.17 554.14 1357.78 554.14S1389.69 543.43 1418.52 543.43S1449.82 559.93 1479.26 559.93S1510.74 557.11 1540 557.11S1571.11 548.71 1600.74 548.71L1540 763 L-100 763 Z" fill="#79bcd8" stroke-width="0">
  <animate attributeName="d" dur="12.5s" repeatCount="indefinite" values="M-100 545.05C-68.11 548.28 -69.35 550.23 -39.26 550.23S-7.49 546.34 21.48 546.34S52.4 573.74 82.22 573.74S113.12 556.76 142.96 556.76S174.33 573.1 203.7 573.1S234.68 550.6 264.44 550.6S295.56 567.54 325.19 567.54S356.82 553.99 385.93 553.99S417.72 570.79 446.67 570.79S478.66 560.78 507.41 560.78S538.18 558.19 568.15 558.19S600.36 553.6 628.89 553.6S660.84 565.27 689.63 565.27S720.04 546.01 750.37 546.01S781.22 575.03 811.11 575.03S841.68 553.73 871.85 553.73S902.83 571.13 932.59 571.13S963.88 547.63 993.33 547.63S1024.12 568.19 1054.07 568.19S1086.25 544.95 1114.81 544.95S1145.98 567.14 1175.56 567.14S1207.05 556.02 1236.3 556.02S1266.78 569.53 1297.04 569.53S1329.17 554.14 1357.78 554.14S1389.69 543.43 1418.52 543.43S1449.82 559.93 1479.26 559.93S1510.74 557.11 1540 557.11S1571.11 548.71 1600.74 548.71L1540 763 L-100 763 Z;M-100 548.09C-69.47 539.41 -68.93 565.77 -39.26 565.77S-7.36 550.52 21.48 550.52S52.13 573.55 82.22 573.55S113.04 543.92 142.96 543.92S173.36 541.09 203.7 541.09S234.47 541.8 264.44 541.8S296.11 569.69 325.19 569.69S357.05 549.67 385.93 549.67S417.65 557.56 446.67 557.56S478.26 549.05 507.41 549.05S539.42 572.62 568.15 572.62S600.05 561.06 628.89 561.06S660.42 563.4 689.63 563.4S720.59 538.05 750.37 538.05S780.98 561.26 811.11 561.26S842.82 544.57 871.85 544.57S902.65 564.32 932.59 564.32S963.65 552.25 993.33 552.25S1025.49 570.79 1054.07 570.79S1085 553.21 1114.81 553.21S1145.29 559.61 1175.56 559.61S1206.39 568.08 1236.3 568.08S1267.12 560.28 1297.04 560.28S1328.34 552.58 1357.78 552.58S1388.68 558.61 1418.52 558.61S1450.47 544.94 1479.26 544.94S1510.17 572.86 1540 572.86S1570.46 550.93 1600.74 550.93L1540 763 L-100 763 Z;M-100 545.05C-68.11 548.28 -69.35 550.23 -39.26 550.23S-7.49 546.34 21.48 546.34S52.4 573.74 82.22 573.74S113.12 556.76 142.96 556.76S174.33 573.1 203.7 573.1S234.68 550.6 264.44 550.6S295.56 567.54 325.19 567.54S356.82 553.99 385.93 553.99S417.72 570.79 446.67 570.79S478.66 560.78 507.41 560.78S538.18 558.19 568.15 558.19S600.36 553.6 628.89 553.6S660.84 565.27 689.63 565.27S720.04 546.01 750.37 546.01S781.22 575.03 811.11 575.03S841.68 553.73 871.85 553.73S902.83 571.13 932.59 571.13S963.88 547.63 993.33 547.63S1024.12 568.19 1054.07 568.19S1086.25 544.95 1114.81 544.95S1145.98 567.14 1175.56 567.14S1207.05 556.02 1236.3 556.02S1266.78 569.53 1297.04 569.53S1329.17 554.14 1357.78 554.14S1389.69 543.43 1418.52 543.43S1449.82 559.93 1479.26 559.93S1510.74 557.11 1540 557.11S1571.11 548.71 1600.74 548.71L1540 763 L-100 763 Z"></animate>
  <animateTransform attributeName="transform" type="translate" dur="12.5s" begin="-6.25s" repeatCount="indefinite" values="0;10;0" calcMode="spline" keySplines="0.3 0 0.7 1;0.3 0 0.7 1"></animateTransform>
</path><path d="M-100 568.97C-67 565.52 -68.41 583.05 -37.4 583.05S-5.98 560.55 25.19 560.55S57.61 581.3 87.79 581.3S120.37 588.95 150.38 588.95S182.74 560.5 212.98 560.5S245.54 572.3 275.57 572.3S308.34 593.22 338.17 593.22S370.24 572.36 400.76 572.36S433.6 587.54 463.36 587.54S495.02 559.63 525.95 559.63S559.06 558.74 588.55 558.74S621.26 574.59 651.15 574.59S683.05 597.59 713.74 597.59S745.15 584.94 776.34 584.94S808.82 594.8 838.93 594.8S871.95 574.02 901.53 574.02S934.47 594.27 964.12 594.27S997.25 563.02 1026.72 563.02S1058.41 584.06 1089.31 584.06S1121.24 560.08 1151.91 560.08S1183.92 586.31 1214.5 586.31S1245.83 557.12 1277.1 557.12S1309.95 598.26 1339.69 598.26S1372.65 567.25 1402.29 567.25S1434.45 580.83 1464.89 580.83S1496.49 559.48 1527.48 559.48S1559.74 597.78 1590.08 597.78L1540 763 L-100 763 Z" fill="#75b5d5" stroke-width="0">
  <animate attributeName="d" dur="10s" repeatCount="indefinite" values="M-100 568.97C-67 565.52 -68.41 583.05 -37.4 583.05S-5.98 560.55 25.19 560.55S57.61 581.3 87.79 581.3S120.37 588.95 150.38 588.95S182.74 560.5 212.98 560.5S245.54 572.3 275.57 572.3S308.34 593.22 338.17 593.22S370.24 572.36 400.76 572.36S433.6 587.54 463.36 587.54S495.02 559.63 525.95 559.63S559.06 558.74 588.55 558.74S621.26 574.59 651.15 574.59S683.05 597.59 713.74 597.59S745.15 584.94 776.34 584.94S808.82 594.8 838.93 594.8S871.95 574.02 901.53 574.02S934.47 594.27 964.12 594.27S997.25 563.02 1026.72 563.02S1058.41 584.06 1089.31 584.06S1121.24 560.08 1151.91 560.08S1183.92 586.31 1214.5 586.31S1245.83 557.12 1277.1 557.12S1309.95 598.26 1339.69 598.26S1372.65 567.25 1402.29 567.25S1434.45 580.83 1464.89 580.83S1496.49 559.48 1527.48 559.48S1559.74 597.78 1590.08 597.78L1540 763 L-100 763 Z;M-100 562.14C-67.59 563.29 -67.27 594.71 -37.4 594.71S-5.2 575.09 25.19 575.09S57.3 581.63 87.79 581.63S120.75 567.3 150.38 567.3S183.13 582.92 212.98 582.92S244.85 567.38 275.57 567.38S308.34 572.89 338.17 572.89S369.68 571.49 400.76 571.49S432.73 587.74 463.36 587.74S495.85 575.04 525.95 575.04S557.36 595.19 588.55 595.19S620.16 564.26 651.15 564.26S683.57 593.13 713.74 593.13S745.95 572.93 776.34 572.93S809.33 594.68 838.93 594.68S870.3 595.82 901.53 595.82S934.02 570.96 964.12 570.96S996.48 566.54 1026.72 566.54S1058.34 594.59 1089.31 594.59S1121.4 574.49 1151.91 574.49S1183.56 589.17 1214.5 589.17S1247.16 557.86 1277.1 557.86S1309.74 592.03 1339.69 592.03S1372.65 560.19 1402.29 560.19S1435.46 572.68 1464.89 572.68S1496.77 560.73 1527.48 560.73S1560.41 566.83 1590.08 566.83L1540 763 L-100 763 Z;M-100 568.97C-67 565.52 -68.41 583.05 -37.4 583.05S-5.98 560.55 25.19 560.55S57.61 581.3 87.79 581.3S120.37 588.95 150.38 588.95S182.74 560.5 212.98 560.5S245.54 572.3 275.57 572.3S308.34 593.22 338.17 593.22S370.24 572.36 400.76 572.36S433.6 587.54 463.36 587.54S495.02 559.63 525.95 559.63S559.06 558.74 588.55 558.74S621.26 574.59 651.15 574.59S683.05 597.59 713.74 597.59S745.15 584.94 776.34 584.94S808.82 594.8 838.93 594.8S871.95 574.02 901.53 574.02S934.47 594.27 964.12 594.27S997.25 563.02 1026.72 563.02S1058.41 584.06 1089.31 584.06S1121.24 560.08 1151.91 560.08S1183.92 586.31 1214.5 586.31S1245.83 557.12 1277.1 557.12S1309.95 598.26 1339.69 598.26S1372.65 567.25 1402.29 567.25S1434.45 580.83 1464.89 580.83S1496.49 559.48 1527.48 559.48S1559.74 597.78 1590.08 597.78L1540 763 L-100 763 Z"></animate>
  <animateTransform attributeName="transform" type="translate" dur="10s" begin="-6s" repeatCount="indefinite" values="0;10;0" calcMode="spline" keySplines="0.3 0 0.7 1;0.3 0 0.7 1"></animateTransform>
</path><path d="M-100 594.92C-66.19 590.12 -67.33 619.59 -35.43 619.59S-2.57 621.23 29.13 621.23S63.29 576.79 93.7 576.79S127.26 581.43 158.27 581.43S190.93 619.53 222.83 619.53S255.92 588.92 287.4 588.92S319.84 608.87 351.97 608.87S384.73 584.46 416.54 584.46S449.78 604.72 481.1 604.72S514.73 578.65 545.67 578.65S578.3 621.1 610.24 621.1S644.07 591.52 674.8 591.52S708.21 617.1 739.37 617.1S772.66 586.88 803.94 586.88S836.81 608.36 868.5 608.36S902.35 586.18 933.07 586.18S965.47 606.57 997.64 606.57S1031.75 588.05 1062.2 588.05S1095.42 578.64 1126.77 578.64S1159.29 585.92 1191.34 585.92S1224.38 620.16 1255.91 620.16S1290.02 585.69 1320.47 585.69S1354.58 604.53 1385.04 604.53S1417.35 586.48 1449.61 586.48S1483.02 609.19 1514.17 609.19S1548.36 591.51 1578.74 591.51L1540 763 L-100 763 Z" fill="#71afd1" stroke-width="0">
  <animate attributeName="d" dur="7.5s" repeatCount="indefinite" values="M-100 594.92C-66.19 590.12 -67.33 619.59 -35.43 619.59S-2.57 621.23 29.13 621.23S63.29 576.79 93.7 576.79S127.26 581.43 158.27 581.43S190.93 619.53 222.83 619.53S255.92 588.92 287.4 588.92S319.84 608.87 351.97 608.87S384.73 584.46 416.54 584.46S449.78 604.72 481.1 604.72S514.73 578.65 545.67 578.65S578.3 621.1 610.24 621.1S644.07 591.52 674.8 591.52S708.21 617.1 739.37 617.1S772.66 586.88 803.94 586.88S836.81 608.36 868.5 608.36S902.35 586.18 933.07 586.18S965.47 606.57 997.64 606.57S1031.75 588.05 1062.2 588.05S1095.42 578.64 1126.77 578.64S1159.29 585.92 1191.34 585.92S1224.38 620.16 1255.91 620.16S1290.02 585.69 1320.47 585.69S1354.58 604.53 1385.04 604.53S1417.35 586.48 1449.61 586.48S1483.02 609.19 1514.17 609.19S1548.36 591.51 1578.74 591.51L1540 763 L-100 763 Z;M-100 579.19C-67.39 587.63 -67.02 619.59 -35.43 619.59S-2.87 580.96 29.13 580.96S62.3 621.51 93.7 621.51S127.72 592.66 158.27 592.66S191.84 612.73 222.83 612.73S256.32 616.56 287.4 616.56S320.58 608.33 351.97 608.33S384.34 613.7 416.54 613.7S449.34 611.49 481.1 611.49S514.61 591.29 545.67 591.29S579.11 619.19 610.24 619.19S642.99 586.85 674.8 586.85S708.11 579.7 739.37 579.7S773.05 579.39 803.94 579.39S837.69 603.32 868.5 603.32S901.92 578.83 933.07 578.83S966.06 581.34 997.64 581.34S1030.84 589.99 1062.2 589.99S1095.11 612.37 1126.77 612.37S1160.6 579.03 1191.34 579.03S1224.9 606.3 1255.91 606.3S1289.37 580.73 1320.47 580.73S1353.87 606.45 1385.04 606.45S1418.47 607.6 1449.61 607.6S1482.38 615.48 1514.17 615.48S1547.37 589.87 1578.74 589.87L1540 763 L-100 763 Z;M-100 594.92C-66.19 590.12 -67.33 619.59 -35.43 619.59S-2.57 621.23 29.13 621.23S63.29 576.79 93.7 576.79S127.26 581.43 158.27 581.43S190.93 619.53 222.83 619.53S255.92 588.92 287.4 588.92S319.84 608.87 351.97 608.87S384.73 584.46 416.54 584.46S449.78 604.72 481.1 604.72S514.73 578.65 545.67 578.65S578.3 621.1 610.24 621.1S644.07 591.52 674.8 591.52S708.21 617.1 739.37 617.1S772.66 586.88 803.94 586.88S836.81 608.36 868.5 608.36S902.35 586.18 933.07 586.18S965.47 606.57 997.64 606.57S1031.75 588.05 1062.2 588.05S1095.42 578.64 1126.77 578.64S1159.29 585.92 1191.34 585.92S1224.38 620.16 1255.91 620.16S1290.02 585.69 1320.47 585.69S1354.58 604.53 1385.04 604.53S1417.35 586.48 1449.61 586.48S1483.02 609.19 1514.17 609.19S1548.36 591.51 1578.74 591.51L1540 763 L-100 763 Z"></animate>
  <animateTransform attributeName="transform" type="translate" dur="7.5s" begin="-5.25s" repeatCount="indefinite" values="0;10;0" calcMode="spline" keySplines="0.3 0 0.7 1;0.3 0 0.7 1"></animateTransform>
</path><path d="M-100 595.65C-66.25 602.48 -66.13 629.57 -33.33 629.57S0.46 603.98 33.33 603.98S68.12 630.48 100 630.48S134.53 640.14 166.67 640.14S200.81 637.38 233.33 637.38S267.17 600.5 300 600.5S333.71 630.78 366.67 630.78S401.06 605.05 433.33 605.05S466.76 637.53 500 637.53S533.55 606.61 566.67 606.61S601.55 631.28 633.33 631.28S667.78 607.27 700 607.27S734.14 631.35 766.67 631.35S800.29 597 833.33 597S867.07 634.59 900 634.59S934.41 613 966.67 613S1001.37 627.91 1033.33 627.91S1067.76 598.71 1100 598.71S1133.64 610.35 1166.67 610.35S1200.2 596.67 1233.33 596.67S1268.13 631.41 1300 631.41S1334.15 609.4 1366.67 609.4S1401.67 628.18 1433.33 628.18S1466.96 636.73 1500 636.73S1535.09 637.72 1566.67 637.72L1540 763 L-100 763 Z" fill="#6ea9cd" stroke-width="0">
  <animate attributeName="d" dur="5s" repeatCount="indefinite" values="M-100 595.65C-66.25 602.48 -66.13 629.57 -33.33 629.57S0.46 603.98 33.33 603.98S68.12 630.48 100 630.48S134.53 640.14 166.67 640.14S200.81 637.38 233.33 637.38S267.17 600.5 300 600.5S333.71 630.78 366.67 630.78S401.06 605.05 433.33 605.05S466.76 637.53 500 637.53S533.55 606.61 566.67 606.61S601.55 631.28 633.33 631.28S667.78 607.27 700 607.27S734.14 631.35 766.67 631.35S800.29 597 833.33 597S867.07 634.59 900 634.59S934.41 613 966.67 613S1001.37 627.91 1033.33 627.91S1067.76 598.71 1100 598.71S1133.64 610.35 1166.67 610.35S1200.2 596.67 1233.33 596.67S1268.13 631.41 1300 631.41S1334.15 609.4 1366.67 609.4S1401.67 628.18 1433.33 628.18S1466.96 636.73 1500 636.73S1535.09 637.72 1566.67 637.72L1540 763 L-100 763 Z;M-100 595.5C-65.14 599.7 -65.73 627.59 -33.33 627.59S0.89 601.21 33.33 601.21S68.12 639.36 100 639.36S134.99 598.2 166.67 598.2S200.21 628.43 233.33 628.43S267.07 600.4 300 600.4S333.4 636.34 366.67 636.34S400.2 611.14 433.33 611.14S467.55 632.4 500 632.4S534.76 611.94 566.67 611.94S601.79 638.87 633.33 638.87S666.98 596.4 700 596.4S734.87 643.19 766.67 643.19S800 612.42 833.33 612.42S867.57 638.41 900 638.41S935.19 608.46 966.67 608.46S1000.7 632.88 1033.33 632.88S1067.69 611.23 1100 611.23S1134.45 640.97 1166.67 640.97S1201.55 598.72 1233.33 598.72S1267.76 642.08 1300 642.08S1335.13 605.13 1366.67 605.13S1400.98 626.16 1433.33 626.16S1467.2 603.53 1500 603.53S1533.35 638.41 1566.67 638.41L1540 763 L-100 763 Z;M-100 595.65C-66.25 602.48 -66.13 629.57 -33.33 629.57S0.46 603.98 33.33 603.98S68.12 630.48 100 630.48S134.53 640.14 166.67 640.14S200.81 637.38 233.33 637.38S267.17 600.5 300 600.5S333.71 630.78 366.67 630.78S401.06 605.05 433.33 605.05S466.76 637.53 500 637.53S533.55 606.61 566.67 606.61S601.55 631.28 633.33 631.28S667.78 607.27 700 607.27S734.14 631.35 766.67 631.35S800.29 597 833.33 597S867.07 634.59 900 634.59S934.41 613 966.67 613S1001.37 627.91 1033.33 627.91S1067.76 598.71 1100 598.71S1133.64 610.35 1166.67 610.35S1200.2 596.67 1233.33 596.67S1268.13 631.41 1300 631.41S1334.15 609.4 1366.67 609.4S1401.67 628.18 1433.33 628.18S1466.96 636.73 1500 636.73S1535.09 637.72 1566.67 637.72L1540 763 L-100 763 Z"></animate>
  <animateTransform attributeName="transform" type="translate" dur="5s" begin="-4s" repeatCount="indefinite" values="0;10;0" calcMode="spline" keySplines="0.3 0 0.7 1;0.3 0 0.7 1"></animateTransform>
</path><path d="M-100 620.33C-65.13 629.86 -63.68 658.03 -31.09 658.03S3.43 631.87 37.82 631.87S73.23 666.91 106.72 666.91S142.18 625.6 175.63 625.6S211.8 653.7 244.54 653.7S280 629.71 313.45 629.71S348.09 666.69 382.35 666.69S418.32 616 451.26 616S487.45 665.28 520.17 665.28S556.2 632.32 589.08 632.32S624.81 659.45 657.98 659.45S693.39 617.08 726.89 617.08S762.25 651.14 795.8 651.14S830.57 651.06 864.71 651.06S901.03 653.95 933.61 653.95S969.6 617.7 1002.52 617.7S1036.99 664.84 1071.43 664.84S1106.27 631.62 1140.34 631.62S1175.51 654.34 1209.24 654.34S1244.12 629.64 1278.15 629.64S1313.87 653.09 1347.06 653.09S1382.68 629.41 1415.97 629.41S1451.03 662.27 1484.87 662.27S1519.42 653.95 1553.78 653.95L1540 763 L-100 763 Z" fill="#6ba2c9" stroke-width="0">
  <animate attributeName="d" dur="2.5s" repeatCount="indefinite" values="M-100 620.33C-65.13 629.86 -63.68 658.03 -31.09 658.03S3.43 631.87 37.82 631.87S73.23 666.91 106.72 666.91S142.18 625.6 175.63 625.6S211.8 653.7 244.54 653.7S280 629.71 313.45 629.71S348.09 666.69 382.35 666.69S418.32 616 451.26 616S487.45 665.28 520.17 665.28S556.2 632.32 589.08 632.32S624.81 659.45 657.98 659.45S693.39 617.08 726.89 617.08S762.25 651.14 795.8 651.14S830.57 651.06 864.71 651.06S901.03 653.95 933.61 653.95S969.6 617.7 1002.52 617.7S1036.99 664.84 1071.43 664.84S1106.27 631.62 1140.34 631.62S1175.51 654.34 1209.24 654.34S1244.12 629.64 1278.15 629.64S1313.87 653.09 1347.06 653.09S1382.68 629.41 1415.97 629.41S1451.03 662.27 1484.87 662.27S1519.42 653.95 1553.78 653.95L1540 763 L-100 763 Z;M-100 619.61C-64.91 618.58 -64.98 657.31 -31.09 657.31S3.45 618.62 37.82 618.62S73.31 649.61 106.72 649.61S142.61 617.72 175.63 617.72S210.22 649.79 244.54 649.79S279.06 666.94 313.45 666.94S348.81 650.92 382.35 650.92S418.37 632.23 451.26 632.23S486.64 649.33 520.17 649.33S555.21 620.42 589.08 620.42S623.83 615.55 657.98 615.55S692.75 616.7 726.89 616.7S762.11 652.83 795.8 652.83S830.77 625.98 864.71 625.98S899.8 666.48 933.61 666.48S969.39 615.75 1002.52 615.75S1038.64 655.53 1071.43 655.53S1107.05 620.05 1140.34 620.05S1176.38 658.42 1209.24 658.42S1245.13 625.27 1278.15 625.27S1313.49 649.62 1347.06 649.62S1383.14 665.2 1415.97 665.2S1451.1 652.54 1484.87 652.54S1520.02 629.52 1553.78 629.52L1540 763 L-100 763 Z;M-100 620.33C-65.13 629.86 -63.68 658.03 -31.09 658.03S3.43 631.87 37.82 631.87S73.23 666.91 106.72 666.91S142.18 625.6 175.63 625.6S211.8 653.7 244.54 653.7S280 629.71 313.45 629.71S348.09 666.69 382.35 666.69S418.32 616 451.26 616S487.45 665.28 520.17 665.28S556.2 632.32 589.08 632.32S624.81 659.45 657.98 659.45S693.39 617.08 726.89 617.08S762.25 651.14 795.8 651.14S830.57 651.06 864.71 651.06S901.03 653.95 933.61 653.95S969.6 617.7 1002.52 617.7S1036.99 664.84 1071.43 664.84S1106.27 631.62 1140.34 631.62S1175.51 654.34 1209.24 654.34S1244.12 629.64 1278.15 629.64S1313.87 653.09 1347.06 653.09S1382.68 629.41 1415.97 629.41S1451.03 662.27 1484.87 662.27S1519.42 653.95 1553.78 653.95L1540 763 L-100 763 Z"></animate>
  <animateTransform attributeName="transform" type="translate" dur="2.5s" begin="-2.25s" repeatCount="indefinite" values="0;10;0" calcMode="spline" keySplines="0.3 0 0.7 1;0.3 0 0.7 1"></animateTransform>
</path></g>
</svg>