<?xml version="1.0" encoding="utf-8"?>
<svg xmlns="http://www.w3.org/2000/svg" xmlns:xlink="http://www.w3.org/1999/xlink" style="margin: auto; display: block; z-index: 1; position: relative; shape-rendering: auto; background: none;" width="1440" height="820" preserveAspectRatio="xMidYMid" viewBox="0 0 1440 820">
<g transform="translate(720,410) scale(1,1) translate(-720,-410)"><path d="M-100 490.59C-72.33 487.7 -71.52 496.9 -47.1 496.9S-19.91 491.96 5.81 491.96S32.9 490.63 58.71 490.63S86.59 493.06 111.61 493.06S139.44 493.58 164.52 493.58S191.71 496.64 217.42 496.64S245.75 476.36 270.32 476.36S298.89 483.96 323.23 483.96S351.75 495.01 376.13 495.01S403.63 484.16 429.03 484.16S455.73 484.28 481.94 484.28S509.1 492.58 534.84 492.58S563.16 480.54 587.74 480.54S614.88 491.17 640.65 491.17S669.35 483.78 693.55 483.78S720.54 477.1 746.45 477.1S773.53 477.4 799.35 477.4S826.58 494.46 852.26 494.46S878.94 484.94 905.16 484.94S931.95 492.7 958.06 492.7S985.18 497.98 1010.97 497.98S1038.47 483.29 1063.87 483.29S1090.69 486.7 1116.77 486.7S1145.06 488.39 1169.68 488.39S1196.17 480.92 1222.58 480.92S1250.28 478.96 1275.48 478.96S1302.89 483.02 1328.39 483.02S1355.09 495.02 1381.29 495.02S1407.76 492.95 1434.19 492.95S1461.78 494.2 1487.1 494.2S1515.36 482.55 1540 482.55S1567.74 493.02 1592.9 493.02L1540 820 L-100 820 Z" fill="#91bcc6" stroke-width="0">
  <animate attributeName="d" dur="42.857142857142854s" repeatCount="indefinite" values="M-100 490.59C-72.33 487.7 -71.52 496.9 -47.1 496.9S-19.91 491.96 5.81 491.96S32.9 490.63 58.71 490.63S86.59 493.06 111.61 493.06S139.44 493.58 164.52 493.58S191.71 496.64 217.42 496.64S245.75 476.36 270.32 476.36S298.89 483.96 323.23 483.96S351.75 495.01 376.13 495.01S403.63 484.16 429.03 484.16S455.73 484.28 481.94 484.28S509.1 492.58 534.84 492.58S563.16 480.54 587.74 480.54S614.88 491.17 640.65 491.17S669.35 483.78 693.55 483.78S720.54 477.1 746.45 477.1S773.53 477.4 799.35 477.4S826.58 494.46 852.26 494.46S878.94 484.94 905.16 484.94S931.95 492.7 958.06 492.7S985.18 497.98 1010.97 497.98S1038.47 483.29 1063.87 483.29S1090.69 486.7 1116.77 486.7S1145.06 488.39 1169.68 488.39S1196.17 480.92 1222.58 480.92S1250.28 478.96 1275.48 478.96S1302.89 483.02 1328.39 483.02S1355.09 495.02 1381.29 495.02S1407.76 492.95 1434.19 492.95S1461.78 494.2 1487.1 494.2S1515.36 482.55 1540 482.55S1567.74 493.02 1592.9 493.02L1540 820 L-100 820 Z;M-100 493.6C-71.29 482.78 -73.4 481.38 -47.1 481.38S-18.89 487.41 5.81 487.41S34.45 493.47 58.71 493.47S87.22 481.35 111.61 481.35S138.23 497.76 164.52 497.76S191.17 495.47 217.42 495.47S245.29 486.64 270.32 486.64S298.63 492.56 323.23 492.56S351.9 486.18 376.13 486.18S403.22 493.55 429.03 493.55S457.03 479.24 481.94 479.24S509.83 484.64 534.84 484.64S562.74 494.06 587.74 494.06S614.25 484.67 640.65 484.67S667.66 491.2 693.55 491.2S722.27 488.76 746.45 488.76S774.62 486.44 799.35 486.44S827.78 494.71 852.26 494.71S879.65 487.63 905.16 487.63S933.4 483.43 958.06 483.43S985.48 483.26 1010.97 483.26S1038.3 490.11 1063.87 490.11S1091.71 482.99 1116.77 482.99S1144.32 497.42 1169.68 497.42S1196.36 490.86 1222.58 490.86S1249.2 481.36 1275.48 481.36S1303.4 492.08 1328.39 492.08S1356.19 490.89 1381.29 490.89S1408.86 486.95 1434.19 486.95S1462.41 492.77 1487.1 492.77S1514.92 481.18 1540 481.18S1568.39 481.1 1592.9 481.1L1540 820 L-100 820 Z;M-100 490.59C-72.33 487.7 -71.52 496.9 -47.1 496.9S-19.91 491.96 5.81 491.96S32.9 490.63 58.71 490.63S86.59 493.06 111.61 493.06S139.44 493.58 164.52 493.58S191.71 496.64 217.42 496.64S245.75 476.36 270.32 476.36S298.89 483.96 323.23 483.96S351.75 495.01 376.13 495.01S403.63 484.16 429.03 484.16S455.73 484.28 481.94 484.28S509.1 492.58 534.84 492.58S563.16 480.54 587.74 480.54S614.88 491.17 640.65 491.17S669.35 483.78 693.55 483.78S720.54 477.1 746.45 477.1S773.53 477.4 799.35 477.4S826.58 494.46 852.26 494.46S878.94 484.94 905.16 484.94S931.95 492.7 958.06 492.7S985.18 497.98 1010.97 497.98S1038.47 483.29 1063.87 483.29S1090.69 486.7 1116.77 486.7S1145.06 488.39 1169.68 488.39S1196.17 480.92 1222.58 480.92S1250.28 478.96 1275.48 478.96S1302.89 483.02 1328.39 483.02S1355.09 495.02 1381.29 495.02S1407.76 492.95 1434.19 492.95S1461.78 494.2 1487.1 494.2S1515.36 482.55 1540 482.55S1567.74 493.02 1592.9 493.02L1540 820 L-100 820 Z"></animate>
  <animateTransform attributeName="transform" type="translate" dur="42.857142857142854s" begin="0s" repeatCount="indefinite" values="0;10;0" calcMode="spline" keySplines="0.3 0 0.7 1;0.3 0 0.7 1"></animateTransform>
</path><path d="M-100 509.29C-71.48 511.35 -71.45 504.04 -45.54 504.04S-16.28 512.86 8.93 512.86S37.31 509.94 63.39 509.94S92.89 515.72 117.86 515.72S147.27 516.53 172.32 516.53S201.76 506.75 226.79 506.75S255.87 526.18 281.25 526.18S309.58 501.23 335.72 501.23S364.54 504.28 390.18 504.28S418.3 523.44 444.65 523.44S473.18 505.94 499.11 505.94S527.5 504.03 553.58 504.03S581.74 509.77 608.04 509.77S636.59 504.37 662.51 504.37S690.01 505 716.97 505S745.56 515.08 771.44 515.08S800.22 514.65 825.9 514.65S854.59 514.01 880.37 514.01S908.77 522.75 934.83 522.75S964.1 514.07 989.3 514.07S1017.57 515.31 1043.76 515.31S1072.52 501.45 1098.23 501.45S1127.53 515.18 1152.69 515.18S1182.1 517.59 1207.16 517.59S1235.63 509.47 1261.62 509.47S1289.47 503.47 1316.09 503.47S1343.33 523.04 1370.55 523.04S1398.06 512.98 1425.02 512.98S1453.33 509.28 1479.48 509.28S1508.66 516.95 1533.95 516.95S1561.29 520 1588.41 520L1540 820 L-100 820 Z" fill="#82b3c2" stroke-width="0">
  <animate attributeName="d" dur="38.095238095238095s" repeatCount="indefinite" values="M-100 509.29C-71.48 511.35 -71.45 504.04 -45.54 504.04S-16.28 512.86 8.93 512.86S37.31 509.94 63.39 509.94S92.89 515.72 117.86 515.72S147.27 516.53 172.32 516.53S201.76 506.75 226.79 506.75S255.87 526.18 281.25 526.18S309.58 501.23 335.72 501.23S364.54 504.28 390.18 504.28S418.3 523.44 444.65 523.44S473.18 505.94 499.11 505.94S527.5 504.03 553.58 504.03S581.74 509.77 608.04 509.77S636.59 504.37 662.51 504.37S690.01 505 716.97 505S745.56 515.08 771.44 515.08S800.22 514.65 825.9 514.65S854.59 514.01 880.37 514.01S908.77 522.75 934.83 522.75S964.1 514.07 989.3 514.07S1017.57 515.31 1043.76 515.31S1072.52 501.45 1098.23 501.45S1127.53 515.18 1152.69 515.18S1182.1 517.59 1207.16 517.59S1235.63 509.47 1261.62 509.47S1289.47 503.47 1316.09 503.47S1343.33 523.04 1370.55 523.04S1398.06 512.98 1425.02 512.98S1453.33 509.28 1479.48 509.28S1508.66 516.95 1533.95 516.95S1561.29 520 1588.41 520L1540 820 L-100 820 Z;M-100 518.75C-70.9 502.97 -71.5 508.33 -45.54 508.33S-17.58 509.17 8.93 509.17S36.84 521.24 63.39 521.24S92.52 509.57 117.86 509.57S147.24 521.23 172.32 521.23S200.4 502.63 226.79 502.63S255.44 505.1 281.25 505.1S309.29 519.64 335.72 519.64S363.85 525.66 390.18 525.66S419.09 505.2 444.65 505.2S472.98 517.32 499.11 517.32S527.96 507.48 553.58 507.48S581.23 511.2 608.04 511.2S636.12 502.17 662.51 502.17S690.5 503.45 716.97 503.45S746.11 498.65 771.44 498.65S800.68 504.4 825.9 504.4S854.39 513.09 880.37 513.09S907.99 524.22 934.83 524.22S963.59 516.65 989.3 516.65S1017.27 514.16 1043.76 514.16S1071.34 504.79 1098.23 504.79S1126.03 517.83 1152.69 517.83S1181.12 520.52 1207.16 520.52S1236.39 508.66 1261.62 508.66S1290.11 504.74 1316.09 504.74S1344.87 525.07 1370.55 525.07S1398.17 515.61 1425.02 515.61S1454.06 510.53 1479.48 510.53S1507.77 501.88 1533.95 501.88S1562.42 522.03 1588.41 522.03L1540 820 L-100 820 Z;M-100 509.29C-71.48 511.35 -71.45 504.04 -45.54 504.04S-16.28 512.86 8.93 512.86S37.31 509.94 63.39 509.94S92.89 515.72 117.86 515.72S147.27 516.53 172.32 516.53S201.76 506.75 226.79 506.75S255.87 526.18 281.25 526.18S309.58 501.23 335.72 501.23S364.54 504.28 390.18 504.28S418.3 523.44 444.65 523.44S473.18 505.94 499.11 505.94S527.5 504.03 553.58 504.03S581.74 509.77 608.04 509.77S636.59 504.37 662.51 504.37S690.01 505 716.97 505S745.56 515.08 771.44 515.08S800.22 514.65 825.9 514.65S854.59 514.01 880.37 514.01S908.77 522.75 934.83 522.75S964.1 514.07 989.3 514.07S1017.57 515.31 1043.76 515.31S1072.52 501.45 1098.23 501.45S1127.53 515.18 1152.69 515.18S1182.1 517.59 1207.16 517.59S1235.63 509.47 1261.62 509.47S1289.47 503.47 1316.09 503.47S1343.33 523.04 1370.55 523.04S1398.06 512.98 1425.02 512.98S1453.33 509.28 1479.48 509.28S1508.66 516.95 1533.95 516.95S1561.29 520 1588.41 520L1540 820 L-100 820 Z"></animate>
  <animateTransform attributeName="transform" type="translate" dur="38.095238095238095s" begin="-4.232804232804233s" repeatCount="indefinite" values="0;10;0" calcMode="spline" keySplines="0.3 0 0.7 1;0.3 0 0.7 1"></animateTransform>
</path><path d="M-100 540.84C-71.6 543.65 -70.31 545.43 -43.88 545.43S-15.34 526.44 12.24 526.44S40.9 552.4 68.37 552.4S96.78 536.1 124.49 536.1S153.59 532.32 180.61 532.32S209.65 530.18 236.73 530.18S265.19 532.76 292.85 532.76S321.15 536.22 348.97 536.22S377.73 538.91 405.1 538.91S434.28 523.19 461.22 523.19S490.48 553.46 517.34 553.46S545.82 536.17 573.46 536.17S602.26 532.36 629.58 532.36S658.71 550.66 685.7 550.66S715.34 549.53 741.83 549.53S770.31 529.09 797.95 529.09S828.1 553.64 854.07 553.64S883.85 524.52 910.19 524.52S938.7 551.64 966.31 551.64S996.14 521.7 1022.43 521.7S1051.25 544.79 1078.56 544.79S1108.43 535.86 1134.68 535.86S1164.73 552.32 1190.8 552.32S1219.84 522.36 1246.92 522.36S1275.25 532.94 1303.04 532.94S1331.23 530.45 1359.16 530.45S1387.45 551.03 1415.29 551.03S1443.98 538.07 1471.41 538.07S1501.71 546.53 1527.53 546.53S1556.1 530.57 1583.65 530.57L1540 820 L-100 820 Z" fill="#72abbe" stroke-width="0">
  <animate attributeName="d" dur="33.33333333333333s" repeatCount="indefinite" values="M-100 540.84C-71.6 543.65 -70.31 545.43 -43.88 545.43S-15.34 526.44 12.24 526.44S40.9 552.4 68.37 552.4S96.78 536.1 124.49 536.1S153.59 532.32 180.61 532.32S209.65 530.18 236.73 530.18S265.19 532.76 292.85 532.76S321.15 536.22 348.97 536.22S377.73 538.91 405.1 538.91S434.28 523.19 461.22 523.19S490.48 553.46 517.34 553.46S545.82 536.17 573.46 536.17S602.26 532.36 629.58 532.36S658.71 550.66 685.7 550.66S715.34 549.53 741.83 549.53S770.31 529.09 797.95 529.09S828.1 553.64 854.07 553.64S883.85 524.52 910.19 524.52S938.7 551.64 966.31 551.64S996.14 521.7 1022.43 521.7S1051.25 544.79 1078.56 544.79S1108.43 535.86 1134.68 535.86S1164.73 552.32 1190.8 552.32S1219.84 522.36 1246.92 522.36S1275.25 532.94 1303.04 532.94S1331.23 530.45 1359.16 530.45S1387.45 551.03 1415.29 551.03S1443.98 538.07 1471.41 538.07S1501.71 546.53 1527.53 546.53S1556.1 530.57 1583.65 530.57L1540 820 L-100 820 Z;M-100 532.26C-71.4 538.47 -70.08 540.48 -43.88 540.48S-15.37 538.49 12.24 538.49S41.47 542.06 68.37 542.06S97.42 529.68 124.49 529.68S154.22 546.8 180.61 546.8S210.23 522.19 236.73 522.19S266.2 525.39 292.85 525.39S321.4 551.66 348.97 551.66S377.5 535.47 405.1 535.47S433.93 536.67 461.22 536.67S489.41 539.71 517.34 539.71S546.05 539.54 573.46 539.54S603.33 553.72 629.58 553.72S658.86 522.82 685.7 522.82S715.87 535.17 741.83 535.17S770.96 527.9 797.95 527.9S827.85 533.41 854.07 533.41S884.25 540.41 910.19 540.41S938.46 549.96 966.31 549.96S996.59 540.53 1022.43 540.53S1050.76 546.48 1078.56 546.48S1107.85 542.18 1134.68 542.18S1163.66 535.49 1190.8 535.49S1220.24 538.78 1246.92 538.78S1276.66 538.6 1303.04 538.6S1332.53 521.34 1359.16 521.34S1387.39 538.59 1415.29 538.59S1444.21 525.35 1471.41 525.35S1501.2 543.35 1527.53 543.35S1557.05 539.2 1583.65 539.2L1540 820 L-100 820 Z;M-100 540.84C-71.6 543.65 -70.31 545.43 -43.88 545.43S-15.34 526.44 12.24 526.44S40.9 552.4 68.37 552.4S96.78 536.1 124.49 536.1S153.59 532.32 180.61 532.32S209.65 530.18 236.73 530.18S265.19 532.76 292.85 532.76S321.15 536.22 348.97 536.22S377.73 538.91 405.1 538.91S434.28 523.19 461.22 523.19S490.48 553.46 517.34 553.46S545.82 536.17 573.46 536.17S602.26 532.36 629.58 532.36S658.71 550.66 685.7 550.66S715.34 549.53 741.83 549.53S770.31 529.09 797.95 529.09S828.1 553.64 854.07 553.64S883.85 524.52 910.19 524.52S938.7 551.64 966.31 551.64S996.14 521.7 1022.43 521.7S1051.25 544.79 1078.56 544.79S1108.43 535.86 1134.68 535.86S1164.73 552.32 1190.8 552.32S1219.84 522.36 1246.92 522.36S1275.25 532.94 1303.04 532.94S1331.23 530.45 1359.16 530.45S1387.45 551.03 1415.29 551.03S1443.98 538.07 1471.41 538.07S1501.71 546.53 1527.53 546.53S1556.1 530.57 1583.65 530.57L1540 820 L-100 820 Z"></animate>
  <animateTransform attributeName="transform" type="translate" dur="33.33333333333333s" begin="-7.4074074074074066s" repeatCount="indefinite" values="0;10;0" calcMode="spline" keySplines="0.3 0 0.7 1;0.3 0 0.7 1"></animateTransform>
</path><path d="M-100 550.32C-69.26 561.13 -69.51 570.75 -42.12 570.75S-11.89 547.23 15.76 547.23S45.73 561.93 73.65 561.93S104.32 562.07 131.53 562.07S161.84 577.03 189.41 577.03S220.01 545.94 247.29 545.94S277.18 580.98 305.18 580.98S335.97 547.01 363.06 547.01S394.16 564.88 420.94 564.88S451.41 562.5 478.82 562.5S508.3 567.01 536.71 567.01S567.25 565.31 594.59 565.31S623.85 560.39 652.47 560.39S682.86 552.89 710.35 552.89S739.69 560.67 768.24 560.67S799.31 577.45 826.12 577.45S855.59 555.23 884 555.23S914.83 550.5 941.88 550.5S971.29 549.07 999.76 549.07S1029.53 565.51 1057.65 565.51S1087.05 577.62 1115.53 577.62S1145.94 545.34 1173.41 545.34S1203.78 577.18 1231.29 577.18S1262.15 574.4 1289.18 574.4S1319.4 581.78 1347.06 581.78S1376.67 554.5 1404.94 554.5S1434.78 564.48 1462.82 564.48S1492.88 547.22 1520.71 547.22S1551.91 562.49 1578.59 562.49L1540 820 L-100 820 Z" fill="#64a2bb" stroke-width="0">
  <animate attributeName="d" dur="28.57142857142857s" repeatCount="indefinite" values="M-100 550.32C-69.26 561.13 -69.51 570.75 -42.12 570.75S-11.89 547.23 15.76 547.23S45.73 561.93 73.65 561.93S104.32 562.07 131.53 562.07S161.84 577.03 189.41 577.03S220.01 545.94 247.29 545.94S277.18 580.98 305.18 580.98S335.97 547.01 363.06 547.01S394.16 564.88 420.94 564.88S451.41 562.5 478.82 562.5S508.3 567.01 536.71 567.01S567.25 565.31 594.59 565.31S623.85 560.39 652.47 560.39S682.86 552.89 710.35 552.89S739.69 560.67 768.24 560.67S799.31 577.45 826.12 577.45S855.59 555.23 884 555.23S914.83 550.5 941.88 550.5S971.29 549.07 999.76 549.07S1029.53 565.51 1057.65 565.51S1087.05 577.62 1115.53 577.62S1145.94 545.34 1173.41 545.34S1203.78 577.18 1231.29 577.18S1262.15 574.4 1289.18 574.4S1319.4 581.78 1347.06 581.78S1376.67 554.5 1404.94 554.5S1434.78 564.48 1462.82 564.48S1492.88 547.22 1520.71 547.22S1551.91 562.49 1578.59 562.49L1540 820 L-100 820 Z;M-100 560.22C-70.43 557.66 -69.15 563 -42.12 563S-11.9 560.32 15.76 560.32S45.47 573.87 73.65 573.87S103.71 563.58 131.53 563.58S162.73 574.1 189.41 574.1S219.43 549.07 247.29 549.07S276.58 569.16 305.18 569.16S335.8 544.12 363.06 544.12S392.44 573.4 420.94 573.4S451.59 572.99 478.82 572.99S508.01 571.2 536.71 571.2S566.3 564.35 594.59 564.35S623.81 563.44 652.47 563.44S682.43 544.73 710.35 544.73S739.32 561.97 768.24 561.97S798.43 559 826.12 559S855.51 580.55 884 580.55S914.25 544.81 941.88 544.81S972.41 569.16 999.76 569.16S1028.74 562.27 1057.65 562.27S1086.64 560.01 1115.53 560.01S1145.32 561.13 1173.41 561.13S1202.59 569.81 1231.29 569.81S1261.33 553.61 1289.18 553.61S1318.21 566.16 1347.06 566.16S1377.76 575.58 1404.94 575.58S1434.83 564.9 1462.82 564.9S1492.72 555.86 1520.71 555.86S1551.91 564.58 1578.59 564.58L1540 820 L-100 820 Z;M-100 550.32C-69.26 561.13 -69.51 570.75 -42.12 570.75S-11.89 547.23 15.76 547.23S45.73 561.93 73.65 561.93S104.32 562.07 131.53 562.07S161.84 577.03 189.41 577.03S220.01 545.94 247.29 545.94S277.18 580.98 305.18 580.98S335.97 547.01 363.06 547.01S394.16 564.88 420.94 564.88S451.41 562.5 478.82 562.5S508.3 567.01 536.71 567.01S567.25 565.31 594.59 565.31S623.85 560.39 652.47 560.39S682.86 552.89 710.35 552.89S739.69 560.67 768.24 560.67S799.31 577.45 826.12 577.45S855.59 555.23 884 555.23S914.83 550.5 941.88 550.5S971.29 549.07 999.76 549.07S1029.53 565.51 1057.65 565.51S1087.05 577.62 1115.53 577.62S1145.94 545.34 1173.41 545.34S1203.78 577.18 1231.29 577.18S1262.15 574.4 1289.18 574.4S1319.4 581.78 1347.06 581.78S1376.67 554.5 1404.94 554.5S1434.78 564.48 1462.82 564.48S1492.88 547.22 1520.71 547.22S1551.91 562.49 1578.59 562.49L1540 820 L-100 820 Z"></animate>
  <animateTransform attributeName="transform" type="translate" dur="28.57142857142857s" begin="-9.523809523809524s" repeatCount="indefinite" values="0;10;0" calcMode="spline" keySplines="0.3 0 0.7 1;0.3 0 0.7 1"></animateTransform>
</path><path d="M-100 588.61C-68.34 576.94 -67.95 606.78 -40.24 606.78S-8.53 571.94 19.51 571.94S51.22 603.75 79.27 603.75S109.39 585.88 139.03 585.88S169.63 590.28 198.79 590.28S230.89 574.68 258.54 574.68S290.49 609.57 318.3 609.57S349.65 573.15 378.06 573.15S409.5 594.68 437.81 594.68S468.5 569.36 497.57 569.36S528.93 589.7 557.33 589.7S588.42 581.5 617.09 581.5S647.71 595.32 676.84 595.32S708.73 568.29 736.6 568.29S768.45 595.42 796.36 595.42S827.99 571.6 856.11 571.6S886.97 601.83 915.87 601.83S945.8 571.27 975.63 571.27S1005.88 567.2 1035.38 567.2S1065.71 579.23 1095.14 579.23S1125.85 603.92 1154.9 603.92S1186.27 579.82 1214.66 579.82S1245.75 600.37 1274.41 600.37S1305.56 576.55 1334.17 576.55S1365.87 594.63 1393.93 594.63S1424.33 585.95 1453.68 585.95S1484.41 592.44 1513.44 592.44S1545.59 580.49 1573.2 580.49L1540 820 L-100 820 Z" fill="#5598b9" stroke-width="0">
  <animate attributeName="d" dur="23.809523809523807s" repeatCount="indefinite" values="M-100 588.61C-68.34 576.94 -67.95 606.78 -40.24 606.78S-8.53 571.94 19.51 571.94S51.22 603.75 79.27 603.75S109.39 585.88 139.03 585.88S169.63 590.28 198.79 590.28S230.89 574.68 258.54 574.68S290.49 609.57 318.3 609.57S349.65 573.15 378.06 573.15S409.5 594.68 437.81 594.68S468.5 569.36 497.57 569.36S528.93 589.7 557.33 589.7S588.42 581.5 617.09 581.5S647.71 595.32 676.84 595.32S708.73 568.29 736.6 568.29S768.45 595.42 796.36 595.42S827.99 571.6 856.11 571.6S886.97 601.83 915.87 601.83S945.8 571.27 975.63 571.27S1005.88 567.2 1035.38 567.2S1065.71 579.23 1095.14 579.23S1125.85 603.92 1154.9 603.92S1186.27 579.82 1214.66 579.82S1245.75 600.37 1274.41 600.37S1305.56 576.55 1334.17 576.55S1365.87 594.63 1393.93 594.63S1424.33 585.95 1453.68 585.95S1484.41 592.44 1513.44 592.44S1545.59 580.49 1573.2 580.49L1540 820 L-100 820 Z;M-100 587.14C-68.85 573.13 -70.09 585.3 -40.24 585.3S-8.61 570.06 19.51 570.06S50.73 592.05 79.27 592.05S109.4 580.42 139.03 580.42S170.93 604.5 198.79 604.5S229.25 607.24 258.54 607.24S289.47 586.36 318.3 586.36S350.44 579.67 378.06 579.67S409.67 594.99 437.81 594.99S469.44 600.38 497.57 600.38S529.08 600.02 557.33 600.02S588.21 598.48 617.09 598.48S647.64 591.22 676.84 591.22S708.45 573.17 736.6 573.17S768.62 608.61 796.36 608.61S826.83 584.71 856.11 584.71S888.08 590.56 915.87 590.56S947.36 571.18 975.63 571.18S1006.95 605.93 1035.38 605.93S1066.89 604.13 1095.14 604.13S1126.69 609.64 1154.9 609.64S1185.65 577.25 1214.66 577.25S1244.84 589.93 1274.41 589.93S1304.88 584.15 1334.17 584.15S1365.15 601.36 1393.93 601.36S1424.28 586.99 1453.68 586.99S1484.39 591.81 1513.44 591.81S1544.1 572.34 1573.2 572.34L1540 820 L-100 820 Z;M-100 588.61C-68.34 576.94 -67.95 606.78 -40.24 606.78S-8.53 571.94 19.51 571.94S51.22 603.75 79.27 603.75S109.39 585.88 139.03 585.88S169.63 590.28 198.79 590.28S230.89 574.68 258.54 574.68S290.49 609.57 318.3 609.57S349.65 573.15 378.06 573.15S409.5 594.68 437.81 594.68S468.5 569.36 497.57 569.36S528.93 589.7 557.33 589.7S588.42 581.5 617.09 581.5S647.71 595.32 676.84 595.32S708.73 568.29 736.6 568.29S768.45 595.42 796.36 595.42S827.99 571.6 856.11 571.6S886.97 601.83 915.87 601.83S945.8 571.27 975.63 571.27S1005.88 567.2 1035.38 567.2S1065.71 579.23 1095.14 579.23S1125.85 603.92 1154.9 603.92S1186.27 579.82 1214.66 579.82S1245.75 600.37 1274.41 600.37S1305.56 576.55 1334.17 576.55S1365.87 594.63 1393.93 594.63S1424.33 585.95 1453.68 585.95S1484.41 592.44 1513.44 592.44S1545.59 580.49 1573.2 580.49L1540 820 L-100 820 Z"></animate>
  <animateTransform attributeName="transform" type="translate" dur="23.809523809523807s" begin="-10.58201058201058s" repeatCount="indefinite" values="0;10;0" calcMode="spline" keySplines="0.3 0 0.7 1;0.3 0 0.7 1"></animateTransform>
</path><path d="M-100 626.66C-67.97 622.04 -68.48 634.12 -38.24 634.12S-5.63 602.93 23.51 602.93S56.01 625.87 85.27 625.87S117.93 592.72 147.03 592.72S178.64 619.43 208.79 619.43S240.83 593.67 270.54 593.67S303.37 623 332.3 623S363.81 605.34 394.06 605.34S427.15 628.05 455.82 628.05S488.47 607.63 517.57 607.63S549.92 634.67 579.33 634.67S610.47 611.18 641.09 611.18S673.91 625 702.85 625S734.83 591.19 764.6 591.19S797.25 636.43 826.36 636.43S857.6 598.79 888.12 598.79S920.75 635.01 949.87 635.01S983.01 589.99 1011.63 589.99S1044.14 616.95 1073.39 616.95S1104.8 595.88 1135.15 595.88S1166.11 597.68 1196.9 597.68S1228.92 597.75 1258.66 597.75S1289.59 616.87 1320.42 616.87S1351.39 597.43 1382.18 597.43S1413.56 620.98 1443.93 620.98S1476.39 600.26 1505.69 600.26S1538.23 636.08 1567.45 636.08L1540 820 L-100 820 Z" fill="#478fb6" stroke-width="0">
  <animate attributeName="d" dur="19.047619047619047s" repeatCount="indefinite" values="M-100 626.66C-67.97 622.04 -68.48 634.12 -38.24 634.12S-5.63 602.93 23.51 602.93S56.01 625.87 85.27 625.87S117.93 592.72 147.03 592.72S178.64 619.43 208.79 619.43S240.83 593.67 270.54 593.67S303.37 623 332.3 623S363.81 605.34 394.06 605.34S427.15 628.05 455.82 628.05S488.47 607.63 517.57 607.63S549.92 634.67 579.33 634.67S610.47 611.18 641.09 611.18S673.91 625 702.85 625S734.83 591.19 764.6 591.19S797.25 636.43 826.36 636.43S857.6 598.79 888.12 598.79S920.75 635.01 949.87 635.01S983.01 589.99 1011.63 589.99S1044.14 616.95 1073.39 616.95S1104.8 595.88 1135.15 595.88S1166.11 597.68 1196.9 597.68S1228.92 597.75 1258.66 597.75S1289.59 616.87 1320.42 616.87S1351.39 597.43 1382.18 597.43S1413.56 620.98 1443.93 620.98S1476.39 600.26 1505.69 600.26S1538.23 636.08 1567.45 636.08L1540 820 L-100 820 Z;M-100 592.9C-67.5 591.19 -67.04 622.35 -38.24 622.35S-5.98 617.56 23.51 617.56S56.5 623.96 85.27 623.96S118.24 599.96 147.03 599.96S179.24 616.84 208.79 616.84S240.89 595.59 270.54 595.59S303.47 607.27 332.3 607.27S364.71 618.09 394.06 618.09S426.01 628.74 455.82 628.74S487.69 611.19 517.57 611.19S549.62 636.67 579.33 636.67S611.51 591.36 641.09 591.36S674.18 616 702.85 616S735.24 605.87 764.6 605.87S797.61 637.05 826.36 637.05S857.57 594.99 888.12 594.99S920.4 601.53 949.87 601.53S981.91 604.77 1011.63 604.77S1044.45 624.98 1073.39 624.98S1104.4 600.33 1135.15 600.33S1166.06 624.08 1196.9 624.08S1228.71 610.56 1258.66 610.56S1289.54 620.38 1320.42 620.38S1351.46 602.22 1382.18 602.22S1413.48 595.99 1443.93 595.99S1476.43 593.9 1505.69 593.9S1538.46 596.6 1567.45 596.6L1540 820 L-100 820 Z;M-100 626.66C-67.97 622.04 -68.48 634.12 -38.24 634.12S-5.63 602.93 23.51 602.93S56.01 625.87 85.27 625.87S117.93 592.72 147.03 592.72S178.64 619.43 208.79 619.43S240.83 593.67 270.54 593.67S303.37 623 332.3 623S363.81 605.34 394.06 605.34S427.15 628.05 455.82 628.05S488.47 607.63 517.57 607.63S549.92 634.67 579.33 634.67S610.47 611.18 641.09 611.18S673.91 625 702.85 625S734.83 591.19 764.6 591.19S797.25 636.43 826.36 636.43S857.6 598.79 888.12 598.79S920.75 635.01 949.87 635.01S983.01 589.99 1011.63 589.99S1044.14 616.95 1073.39 616.95S1104.8 595.88 1135.15 595.88S1166.11 597.68 1196.9 597.68S1228.92 597.75 1258.66 597.75S1289.59 616.87 1320.42 616.87S1351.39 597.43 1382.18 597.43S1413.56 620.98 1443.93 620.98S1476.39 600.26 1505.69 600.26S1538.23 636.08 1567.45 636.08L1540 820 L-100 820 Z"></animate>
  <animateTransform attributeName="transform" type="translate" dur="19.047619047619047s" begin="-10.582010582010582s" repeatCount="indefinite" values="0;10;0" calcMode="spline" keySplines="0.3 0 0.7 1;0.3 0 0.7 1"></animateTransform>
</path><path d="M-100 624C-66.94 617.1 -67.22 651.33 -36.1 651.33S-3.09 617.2 27.79 617.2S60.38 658.18 91.69 658.18S124.99 634.7 155.58 634.7S187.9 648.73 219.48 648.73S252.68 622.83 283.38 622.83S317.27 658.59 347.27 658.59S381.12 661.99 411.17 661.99S445.08 664.86 475.06 664.86S507.68 631.14 538.96 631.14S571.62 658.9 602.86 658.9S636.7 630.74 666.75 630.74S699.91 658.54 730.65 658.54S763.39 627.19 794.55 627.19S827.22 657.88 858.44 657.88S891.05 621.86 922.34 621.86S954.44 644.94 986.23 644.94S1019.31 623.63 1050.13 623.63S1082.82 656.4 1114.03 656.4S1146.03 628.25 1177.92 628.25S1210.52 644.65 1241.82 644.65S1274.35 649.07 1305.71 649.07S1338.11 645.51 1369.61 645.51S1403.37 627.82 1433.51 627.82S1467.28 635.02 1497.4 635.02S1530.42 633.34 1561.3 633.34L1540 820 L-100 820 Z" fill="#3986b3" stroke-width="0">
  <animate attributeName="d" dur="14.285714285714285s" repeatCount="indefinite" values="M-100 624C-66.94 617.1 -67.22 651.33 -36.1 651.33S-3.09 617.2 27.79 617.2S60.38 658.18 91.69 658.18S124.99 634.7 155.58 634.7S187.9 648.73 219.48 648.73S252.68 622.83 283.38 622.83S317.27 658.59 347.27 658.59S381.12 661.99 411.17 661.99S445.08 664.86 475.06 664.86S507.68 631.14 538.96 631.14S571.62 658.9 602.86 658.9S636.7 630.74 666.75 630.74S699.91 658.54 730.65 658.54S763.39 627.19 794.55 627.19S827.22 657.88 858.44 657.88S891.05 621.86 922.34 621.86S954.44 644.94 986.23 644.94S1019.31 623.63 1050.13 623.63S1082.82 656.4 1114.03 656.4S1146.03 628.25 1177.92 628.25S1210.52 644.65 1241.82 644.65S1274.35 649.07 1305.71 649.07S1338.11 645.51 1369.61 645.51S1403.37 627.82 1433.51 627.82S1467.28 635.02 1497.4 635.02S1530.42 633.34 1561.3 633.34L1540 820 L-100 820 Z;M-100 622.38C-66.46 613.45 -66.9 651.37 -36.1 651.37S-3.6 619.1 27.79 619.1S61.48 652.48 91.69 652.48S125.14 620.06 155.58 620.06S187.68 646.23 219.48 646.23S251.98 631.19 283.38 631.19S315.62 663.56 347.27 663.56S379.25 612.78 411.17 612.78S443.86 656.67 475.06 656.67S507.64 623.87 538.96 623.87S571.94 662.67 602.86 662.67S635.32 618.83 666.75 618.83S699.29 648.34 730.65 648.34S763.68 620.12 794.55 620.12S826.65 652.45 858.44 652.45S892.45 618.39 922.34 618.39S954.38 659.9 986.23 659.9S1018.53 650.86 1050.13 650.86S1083.03 646.34 1114.03 646.34S1147.78 628.03 1177.92 628.03S1211.24 646.95 1241.82 646.95S1275.55 632.84 1305.71 632.84S1338.79 663.15 1369.61 663.15S1401.6 622.9 1433.51 622.9S1466.28 651.55 1497.4 651.55S1529.95 660.82 1561.3 660.82L1540 820 L-100 820 Z;M-100 624C-66.94 617.1 -67.22 651.33 -36.1 651.33S-3.09 617.2 27.79 617.2S60.38 658.18 91.69 658.18S124.99 634.7 155.58 634.7S187.9 648.73 219.48 648.73S252.68 622.83 283.38 622.83S317.27 658.59 347.27 658.59S381.12 661.99 411.17 661.99S445.08 664.86 475.06 664.86S507.68 631.14 538.96 631.14S571.62 658.9 602.86 658.9S636.7 630.74 666.75 630.74S699.91 658.54 730.65 658.54S763.39 627.19 794.55 627.19S827.22 657.88 858.44 657.88S891.05 621.86 922.34 621.86S954.44 644.94 986.23 644.94S1019.31 623.63 1050.13 623.63S1082.82 656.4 1114.03 656.4S1146.03 628.25 1177.92 628.25S1210.52 644.65 1241.82 644.65S1274.35 649.07 1305.71 649.07S1338.11 645.51 1369.61 645.51S1403.37 627.82 1433.51 627.82S1467.28 635.02 1497.4 635.02S1530.42 633.34 1561.3 633.34L1540 820 L-100 820 Z"></animate>
  <animateTransform attributeName="transform" type="translate" dur="14.285714285714285s" begin="-9.523809523809524s" repeatCount="indefinite" values="0;10;0" calcMode="spline" keySplines="0.3 0 0.7 1;0.3 0 0.7 1"></animateTransform>
</path><path d="M-100 637.37C-66.19 653.12 -66.88 675.85 -33.81 675.85S0.34 638.87 32.38 638.87S67.18 675 98.57 675S133.24 643.4 164.75 643.4S198.12 682.35 230.94 682.35S264.44 636.86 297.13 636.86S331.69 692.55 363.32 692.55S398.06 651.13 429.51 651.13S464.29 685.61 495.7 685.61S529.65 652.92 561.88 652.92S595.79 674.86 628.07 674.86S661.37 653.25 694.26 653.25S729.33 686.47 760.45 686.47S794.28 638.03 826.64 638.03S860.12 671.39 892.83 671.39S927.1 639.76 959.01 639.76S994.32 683.7 1025.2 683.7S1058.47 649.71 1091.39 649.71S1125.39 687.94 1157.58 687.94S1191.82 652.3 1223.77 652.3S1257.44 650.03 1289.96 650.03S1324.73 656.85 1356.14 656.85S1389.38 692.08 1422.33 692.08S1456.33 636.4 1488.52 636.4S1522.98 687.71 1554.71 687.71L1540 820 L-100 820 Z" fill="#2a7cb0" stroke-width="0">
  <animate attributeName="d" dur="9.523809523809524s" repeatCount="indefinite" values="M-100 637.37C-66.19 653.12 -66.88 675.85 -33.81 675.85S0.34 638.87 32.38 638.87S67.18 675 98.57 675S133.24 643.4 164.75 643.4S198.12 682.35 230.94 682.35S264.44 636.86 297.13 636.86S331.69 692.55 363.32 692.55S398.06 651.13 429.51 651.13S464.29 685.61 495.7 685.61S529.65 652.92 561.88 652.92S595.79 674.86 628.07 674.86S661.37 653.25 694.26 653.25S729.33 686.47 760.45 686.47S794.28 638.03 826.64 638.03S860.12 671.39 892.83 671.39S927.1 639.76 959.01 639.76S994.32 683.7 1025.2 683.7S1058.47 649.71 1091.39 649.71S1125.39 687.94 1157.58 687.94S1191.82 652.3 1223.77 652.3S1257.44 650.03 1289.96 650.03S1324.73 656.85 1356.14 656.85S1389.38 692.08 1422.33 692.08S1456.33 636.4 1488.52 636.4S1522.98 687.71 1554.71 687.71L1540 820 L-100 820 Z;M-100 656.82C-65.23 639.36 -65.44 671.08 -33.81 671.08S1.17 682.28 32.38 682.28S67.07 676.16 98.57 676.16S132.65 645.63 164.75 645.63S199.24 674.35 230.94 674.35S264.35 684.03 297.13 684.03S330.73 672.48 363.32 672.48S398.61 671.22 429.51 671.22S464.3 680.73 495.7 680.73S528.97 690.4 561.88 690.4S596.94 680.86 628.07 680.86S661.17 644.57 694.26 644.57S728.33 670.55 760.45 670.55S795.64 656.99 826.64 656.99S861.18 683.14 892.83 683.14S926.82 652.39 959.01 652.39S993.63 653.17 1025.2 653.17S1060.52 644.25 1091.39 644.25S1125.64 684.03 1157.58 684.03S1192.53 638.04 1223.77 638.04S1258.06 678.12 1289.96 678.12S1324.84 648.5 1356.14 648.5S1391.34 688.42 1422.33 688.42S1456.34 641.84 1488.52 641.84S1522.91 681.78 1554.71 681.78L1540 820 L-100 820 Z;M-100 637.37C-66.19 653.12 -66.88 675.85 -33.81 675.85S0.34 638.87 32.38 638.87S67.18 675 98.57 675S133.24 643.4 164.75 643.4S198.12 682.35 230.94 682.35S264.44 636.86 297.13 636.86S331.69 692.55 363.32 692.55S398.06 651.13 429.51 651.13S464.29 685.61 495.7 685.61S529.65 652.92 561.88 652.92S595.79 674.86 628.07 674.86S661.37 653.25 694.26 653.25S729.33 686.47 760.45 686.47S794.28 638.03 826.64 638.03S860.12 671.39 892.83 671.39S927.1 639.76 959.01 639.76S994.32 683.7 1025.2 683.7S1058.47 649.71 1091.39 649.71S1125.39 687.94 1157.58 687.94S1191.82 652.3 1223.77 652.3S1257.44 650.03 1289.96 650.03S1324.73 656.85 1356.14 656.85S1389.38 692.08 1422.33 692.08S1456.33 636.4 1488.52 636.4S1522.98 687.71 1554.71 687.71L1540 820 L-100 820 Z"></animate>
  <animateTransform attributeName="transform" type="translate" dur="9.523809523809524s" begin="-7.407407407407408s" repeatCount="indefinite" values="0;10;0" calcMode="spline" keySplines="0.3 0 0.7 1;0.3 0 0.7 1"></animateTransform>
</path><path d="M-100 665.44C-64.01 665.25 -64.05 714.72 -31.35 714.72S4.7 670.23 37.3 670.23S73.75 712.04 105.95 712.04S142.45 720.58 174.6 720.58S208.94 720.12 243.26 720.12S278.98 672.75 311.91 672.75S346.96 698.69 380.56 698.69S416.97 659.97 449.21 659.97S485.34 705.58 517.86 705.58S552.4 679.4 586.51 679.4S621.57 704.83 655.16 704.83S690.66 675.12 723.81 675.12S759.65 707.22 792.47 707.22S827.76 668.59 861.12 668.59S897.35 717.03 929.77 717.03S964.81 676 998.42 676S1034.19 708.28 1067.07 708.28S1102.76 663.27 1135.72 663.27S1171.05 709.39 1204.37 709.39S1240.3 659.23 1273.02 659.23S1307.83 680 1341.67 680S1376.35 665 1410.33 665S1445.96 714.5 1478.98 714.5S1514.42 661.05 1547.63 661.05L1540 820 L-100 820 Z" fill="#1b73ad" stroke-width="0">
  <animate attributeName="d" dur="4.761904761904762s" repeatCount="indefinite" values="M-100 665.44C-64.01 665.25 -64.05 714.72 -31.35 714.72S4.7 670.23 37.3 670.23S73.75 712.04 105.95 712.04S142.45 720.58 174.6 720.58S208.94 720.12 243.26 720.12S278.98 672.75 311.91 672.75S346.96 698.69 380.56 698.69S416.97 659.97 449.21 659.97S485.34 705.58 517.86 705.58S552.4 679.4 586.51 679.4S621.57 704.83 655.16 704.83S690.66 675.12 723.81 675.12S759.65 707.22 792.47 707.22S827.76 668.59 861.12 668.59S897.35 717.03 929.77 717.03S964.81 676 998.42 676S1034.19 708.28 1067.07 708.28S1102.76 663.27 1135.72 663.27S1171.05 709.39 1204.37 709.39S1240.3 659.23 1273.02 659.23S1307.83 680 1341.67 680S1376.35 665 1410.33 665S1445.96 714.5 1478.98 714.5S1514.42 661.05 1547.63 661.05L1540 820 L-100 820 Z;M-100 660.92C-64.34 664.89 -64.64 674.26 -31.35 674.26S3.06 680.46 37.3 680.46S72.16 703.78 105.95 703.78S142.07 673.47 174.6 673.47S210.48 719.36 243.26 719.36S278.27 679.29 311.91 679.29S348.25 711.48 380.56 711.48S415.96 663.02 449.21 663.02S483.79 710.58 517.86 710.58S553.55 663.56 586.51 663.56S622.96 706.99 655.16 706.99S691.71 663.07 723.81 663.07S758.42 699.8 792.47 699.8S827.02 661.91 861.12 661.91S896.46 717.14 929.77 717.14S965.49 663.43 998.42 663.43S1033.18 704.71 1067.07 704.71S1103.41 663.91 1135.72 663.91S1170.84 707.98 1204.37 707.98S1238.92 667.5 1273.02 667.5S1307.82 716.57 1341.67 716.57S1377 663.8 1410.33 663.8S1446.16 703.71 1478.98 703.71S1513.75 667.29 1547.63 667.29L1540 820 L-100 820 Z;M-100 665.44C-64.01 665.25 -64.05 714.72 -31.35 714.72S4.7 670.23 37.3 670.23S73.75 712.04 105.95 712.04S142.45 720.58 174.6 720.58S208.94 720.12 243.26 720.12S278.98 672.75 311.91 672.75S346.96 698.69 380.56 698.69S416.97 659.97 449.21 659.97S485.34 705.58 517.86 705.58S552.4 679.4 586.51 679.4S621.57 704.83 655.16 704.83S690.66 675.12 723.81 675.12S759.65 707.22 792.47 707.22S827.76 668.59 861.12 668.59S897.35 717.03 929.77 717.03S964.81 676 998.42 676S1034.19 708.28 1067.07 708.28S1102.76 663.27 1135.72 663.27S1171.05 709.39 1204.37 709.39S1240.3 659.23 1273.02 659.23S1307.83 680 1341.67 680S1376.35 665 1410.33 665S1445.96 714.5 1478.98 714.5S1514.42 661.05 1547.63 661.05L1540 820 L-100 820 Z"></animate>
  <animateTransform attributeName="transform" type="translate" dur="4.761904761904762s" begin="-4.232804232804233s" repeatCount="indefinite" values="0;10;0" calcMode="spline" keySplines="0.3 0 0.7 1;0.3 0 0.7 1"></animateTransform>
</path></g>
</svg>