<?xml version="1.0" encoding="utf-8"?>
<svg xmlns="http://www.w3.org/2000/svg" xmlns:xlink="http://www.w3.org/1999/xlink" style="margin: auto; background: rgb(27, 24, 88); display: block; z-index: 1; position: relative; shape-rendering: auto;" width="1263" height="716" preserveAspectRatio="xMidYMid" viewBox="0 0 1263 716">
<g transform="translate(631.5,358) scale(1,1) translate(-631.5,-358)"><path d="M-100 432.13C-76.22 424.16 -75.3 422.46 -52.81 422.46S-28.78 429.78 -5.61 429.78S18.24 431.08 41.58 431.08S66.17 415.31 88.77 415.31S113.73 417.29 135.97 417.29S160.94 422.31 183.16 422.31S208.46 429.96 230.35 429.96S254.22 420.92 277.55 420.92S302.49 422.4 324.74 422.4S348.61 419.38 371.94 419.38S397.2 426.65 419.13 426.65S443.76 430.38 466.32 430.38S490.84 420.09 513.52 420.09S537.39 418.78 560.71 418.78S585.13 430.48 607.9 430.48S632.44 425.13 655.1 425.13S679.92 425.73 702.29 425.73S727.08 421.03 749.48 421.03S774.65 423.82 796.68 423.82S820.66 418.84 843.87 418.84S869.26 420.26 891.06 420.26S916.2 433.03 938.26 433.03S962.61 419.44 985.45 419.44S1010.61 425.88 1032.65 425.88S1056.61 432.37 1079.84 432.37S1104.31 433.04 1127.03 433.04S1150.78 419.47 1174.23 419.47S1198.91 416.46 1221.42 416.46S1245.54 431.06 1268.61 431.06S1292.33 430.37 1315.81 430.37S1340.19 415.49 1363 415.49S1387.06 421.03 1410.19 421.03L1363 716 L-100 716 Z" fill="#292664" stroke-width="0">
  <animate attributeName="d" dur="25s" repeatCount="indefinite" values="M-100 432.13C-76.22 424.16 -75.3 422.46 -52.81 422.46S-28.78 429.78 -5.61 429.78S18.24 431.08 41.58 431.08S66.17 415.31 88.77 415.31S113.73 417.29 135.97 417.29S160.94 422.31 183.16 422.31S208.46 429.96 230.35 429.96S254.22 420.92 277.55 420.92S302.49 422.4 324.74 422.4S348.61 419.38 371.94 419.38S397.2 426.65 419.13 426.65S443.76 430.38 466.32 430.38S490.84 420.09 513.52 420.09S537.39 418.78 560.71 418.78S585.13 430.48 607.9 430.48S632.44 425.13 655.1 425.13S679.92 425.73 702.29 425.73S727.08 421.03 749.48 421.03S774.65 423.82 796.68 423.82S820.66 418.84 843.87 418.84S869.26 420.26 891.06 420.26S916.2 433.03 938.26 433.03S962.61 419.44 985.45 419.44S1010.61 425.88 1032.65 425.88S1056.61 432.37 1079.84 432.37S1104.31 433.04 1127.03 433.04S1150.78 419.47 1174.23 419.47S1198.91 416.46 1221.42 416.46S1245.54 431.06 1268.61 431.06S1292.33 430.37 1315.81 430.37S1340.19 415.49 1363 415.49S1387.06 421.03 1410.19 421.03L1363 716 L-100 716 Z;M-100 431.09C-75.83 431.95 -75.12 415.66 -52.81 415.66S-28.91 418.5 -5.61 418.5S19.69 420.02 41.58 420.02S65.23 420.15 88.77 420.15S113.13 430.26 135.97 430.26S160.99 415.53 183.16 415.53S206.77 423.67 230.35 423.67S255.4 428.23 277.55 428.23S301.18 424.69 324.74 424.69S349.55 417.91 371.94 417.91S395.79 427.83 419.13 427.83S442.79 423.44 466.32 423.44S490.89 428.91 513.52 428.91S538.38 416.83 560.71 416.83S585.39 419.67 607.9 419.67S633.02 416.93 655.1 416.93S680.21 424.03 702.29 424.03S727.54 426.84 749.48 426.84S774.18 425.36 796.68 425.36S821.81 430.8 843.87 430.8S867.67 417.91 891.06 417.91S916.02 422.55 938.26 422.55S962.2 430.5 985.45 430.5S1009.43 419.42 1032.65 419.42S1057.61 416.14 1079.84 416.14S1104.35 427.61 1127.03 427.61S1152.16 424.65 1174.23 424.65S1198.96 416.1 1221.42 416.1S1246.37 415.29 1268.61 415.29S1292.38 432.63 1315.81 432.63S1341.11 425.26 1363 425.26S1387.3 429.48 1410.19 429.48L1363 716 L-100 716 Z;M-100 432.13C-76.22 424.16 -75.3 422.46 -52.81 422.46S-28.78 429.78 -5.61 429.78S18.24 431.08 41.58 431.08S66.17 415.31 88.77 415.31S113.73 417.29 135.97 417.29S160.94 422.31 183.16 422.31S208.46 429.96 230.35 429.96S254.22 420.92 277.55 420.92S302.49 422.4 324.74 422.4S348.61 419.38 371.94 419.38S397.2 426.65 419.13 426.65S443.76 430.38 466.32 430.38S490.84 420.09 513.52 420.09S537.39 418.78 560.71 418.78S585.13 430.48 607.9 430.48S632.44 425.13 655.1 425.13S679.92 425.73 702.29 425.73S727.08 421.03 749.48 421.03S774.65 423.82 796.68 423.82S820.66 418.84 843.87 418.84S869.26 420.26 891.06 420.26S916.2 433.03 938.26 433.03S962.61 419.44 985.45 419.44S1010.61 425.88 1032.65 425.88S1056.61 432.37 1079.84 432.37S1104.31 433.04 1127.03 433.04S1150.78 419.47 1174.23 419.47S1198.91 416.46 1221.42 416.46S1245.54 431.06 1268.61 431.06S1292.33 430.37 1315.81 430.37S1340.19 415.49 1363 415.49S1387.06 421.03 1410.19 421.03L1363 716 L-100 716 Z"></animate>
  <animateTransform attributeName="transform" type="translate" dur="25s" begin="0s" repeatCount="indefinite" values="0;10;0" calcMode="spline" keySplines="0.3 0 0.7 1;0.3 0 0.7 1"></animateTransform>
</path><path d="M-100 446.2C-75.49 439.88 -75.14 444.42 -51.56 444.42S-26.63 446.25 -3.11 446.25S21.42 443.42 45.33 443.42S71.01 442.29 93.77 442.29S118.06 439.11 142.22 439.11S167.39 447.28 190.66 447.28S215.9 451.17 239.11 451.17S263.67 441.41 287.55 441.41S313.4 446.02 335.99 446.02S360.78 448.56 384.44 448.56S410.38 434.2 432.88 434.2S457.12 440.52 481.32 440.52S506.41 438.18 529.77 438.18S555.73 449.71 578.21 449.71S603.03 444.11 626.66 444.11S652.12 435.54 675.1 435.54S699.94 439.16 723.54 439.16S749.05 440.16 771.99 440.16S796.49 440.53 820.43 440.53S845.63 443.42 868.87 443.42S894.7 442.83 917.32 442.83S941.82 442.04 965.76 442.04S990.63 453.56 1014.21 453.56S1040.22 445.87 1062.65 445.87S1088.31 444.54 1111.09 444.54S1135.48 434.99 1159.54 434.99S1183.82 438.26 1207.98 438.26S1233.58 448.3 1256.42 448.3S1282.1 446.1 1304.87 446.1S1330.84 448.6 1353.31 448.6S1378.42 450.72 1401.75 450.72L1363 716 L-100 716 Z" fill="#2e2e69" stroke-width="0">
  <animate attributeName="d" dur="22.5s" repeatCount="indefinite" values="M-100 446.2C-75.49 439.88 -75.14 444.42 -51.56 444.42S-26.63 446.25 -3.11 446.25S21.42 443.42 45.33 443.42S71.01 442.29 93.77 442.29S118.06 439.11 142.22 439.11S167.39 447.28 190.66 447.28S215.9 451.17 239.11 451.17S263.67 441.41 287.55 441.41S313.4 446.02 335.99 446.02S360.78 448.56 384.44 448.56S410.38 434.2 432.88 434.2S457.12 440.52 481.32 440.52S506.41 438.18 529.77 438.18S555.73 449.71 578.21 449.71S603.03 444.11 626.66 444.11S652.12 435.54 675.1 435.54S699.94 439.16 723.54 439.16S749.05 440.16 771.99 440.16S796.49 440.53 820.43 440.53S845.63 443.42 868.87 443.42S894.7 442.83 917.32 442.83S941.82 442.04 965.76 442.04S990.63 453.56 1014.21 453.56S1040.22 445.87 1062.65 445.87S1088.31 444.54 1111.09 444.54S1135.48 434.99 1159.54 434.99S1183.82 438.26 1207.98 438.26S1233.58 448.3 1256.42 448.3S1282.1 446.1 1304.87 446.1S1330.84 448.6 1353.31 448.6S1378.42 450.72 1401.75 450.72L1363 716 L-100 716 Z;M-100 444.51C-74.13 450.22 -74.35 450.15 -51.56 450.15S-26.1 448.83 -3.11 448.83S21.54 450.3 45.33 450.3S70.28 440.57 93.77 440.57S119.28 445.45 142.22 445.45S166.73 449.25 190.66 449.25S215.87 450.09 239.11 450.09S263.65 437.44 287.55 437.44S313.07 446.54 335.99 446.54S360.59 433.34 384.44 433.34S408.72 444.8 432.88 444.8S458.1 443.73 481.32 443.73S505.8 451.56 529.77 451.56S554.59 452.54 578.21 452.54S603.35 452.96 626.66 452.96S651.82 448.08 675.1 448.08S700.05 450.75 723.54 450.75S748.95 438.46 771.99 438.46S797.22 449.04 820.43 449.04S845.5 445.15 868.87 445.15S894.45 452.06 917.32 452.06S943.21 442.82 965.76 442.82S990.48 441.92 1014.21 441.92S1038.86 442.24 1062.65 442.24S1086.88 454.03 1111.09 454.03S1136.03 436.61 1159.54 436.61S1184.16 447.83 1207.98 447.83S1232.56 440.53 1256.42 440.53S1281.25 449.21 1304.87 449.21S1330.23 434.42 1353.31 434.42S1378.77 454.19 1401.75 454.19L1363 716 L-100 716 Z;M-100 446.2C-75.49 439.88 -75.14 444.42 -51.56 444.42S-26.63 446.25 -3.11 446.25S21.42 443.42 45.33 443.42S71.01 442.29 93.77 442.29S118.06 439.11 142.22 439.11S167.39 447.28 190.66 447.28S215.9 451.17 239.11 451.17S263.67 441.41 287.55 441.41S313.4 446.02 335.99 446.02S360.78 448.56 384.44 448.56S410.38 434.2 432.88 434.2S457.12 440.52 481.32 440.52S506.41 438.18 529.77 438.18S555.73 449.71 578.21 449.71S603.03 444.11 626.66 444.11S652.12 435.54 675.1 435.54S699.94 439.16 723.54 439.16S749.05 440.16 771.99 440.16S796.49 440.53 820.43 440.53S845.63 443.42 868.87 443.42S894.7 442.83 917.32 442.83S941.82 442.04 965.76 442.04S990.63 453.56 1014.21 453.56S1040.22 445.87 1062.65 445.87S1088.31 444.54 1111.09 444.54S1135.48 434.99 1159.54 434.99S1183.82 438.26 1207.98 438.26S1233.58 448.3 1256.42 448.3S1282.1 446.1 1304.87 446.1S1330.84 448.6 1353.31 448.6S1378.42 450.72 1401.75 450.72L1363 716 L-100 716 Z"></animate>
  <animateTransform attributeName="transform" type="translate" dur="22.5s" begin="-2.25s" repeatCount="indefinite" values="0;10;0" calcMode="spline" keySplines="0.3 0 0.7 1;0.3 0 0.7 1"></animateTransform>
</path><path d="M-100 462.69C-74.84 467.59 -75.01 453.21 -50.24 453.21S-24.22 453.47 -0.48 453.47S26.1 474.35 49.29 474.35S74.69 457.83 99.05 457.83S125.35 462.81 148.81 462.81S174.49 467.01 198.57 467.01S224.46 467 248.33 467S273.28 456.74 298.1 456.74S323.34 463.94 347.86 463.94S373.09 471.81 397.62 471.81S422.65 468.99 447.38 468.99S473.13 462.77 497.14 462.77S523.02 471.14 546.9 471.14S572.76 468.02 596.67 468.02S622.64 471.05 646.43 471.05S671.95 458.66 696.19 458.66S721.28 461.86 745.95 461.86S772.51 459.3 795.71 459.3S822.1 469.25 845.48 469.25S871.87 459.42 895.24 459.42S921.64 471.31 945 471.31S969.95 457.69 994.76 457.69S1020.16 469.58 1044.52 469.58S1069.43 460.79 1094.29 460.79S1119.22 468.45 1144.05 468.45S1169.52 464.76 1193.81 464.76S1218.82 471.86 1243.57 471.86S1269.11 465.63 1293.33 465.63S1318.34 461.99 1343.1 461.99S1369.35 457.06 1392.86 457.06L1363 716 L-100 716 Z" fill="#33356f" stroke-width="0">
  <animate attributeName="d" dur="20s" repeatCount="indefinite" values="M-100 462.69C-74.84 467.59 -75.01 453.21 -50.24 453.21S-24.22 453.47 -0.48 453.47S26.1 474.35 49.29 474.35S74.69 457.83 99.05 457.83S125.35 462.81 148.81 462.81S174.49 467.01 198.57 467.01S224.46 467 248.33 467S273.28 456.74 298.1 456.74S323.34 463.94 347.86 463.94S373.09 471.81 397.62 471.81S422.65 468.99 447.38 468.99S473.13 462.77 497.14 462.77S523.02 471.14 546.9 471.14S572.76 468.02 596.67 468.02S622.64 471.05 646.43 471.05S671.95 458.66 696.19 458.66S721.28 461.86 745.95 461.86S772.51 459.3 795.71 459.3S822.1 469.25 845.48 469.25S871.87 459.42 895.24 459.42S921.64 471.31 945 471.31S969.95 457.69 994.76 457.69S1020.16 469.58 1044.52 469.58S1069.43 460.79 1094.29 460.79S1119.22 468.45 1144.05 468.45S1169.52 464.76 1193.81 464.76S1218.82 471.86 1243.57 471.86S1269.11 465.63 1293.33 465.63S1318.34 461.99 1343.1 461.99S1369.35 457.06 1392.86 457.06L1363 716 L-100 716 Z;M-100 468.77C-74.86 455.84 -73.65 460.78 -50.24 460.78S-24.02 468.34 -0.48 468.34S26.04 468.43 49.29 468.43S74.83 453.75 99.05 453.75S124.12 470.1 148.81 470.1S174.95 463.84 198.57 463.84S223.56 466.7 248.33 466.7S274.81 460.47 298.1 460.47S324.58 464.34 347.86 464.34S372.86 453.21 397.62 453.21S423.78 474.42 447.38 474.42S473.06 460.49 497.14 460.49S522.87 476.05 546.9 476.05S573.35 465.43 596.67 465.43S623.23 468.15 646.43 468.15S672.2 454.07 696.19 454.07S721.31 469.28 745.95 469.28S772.03 462.34 795.71 462.34S820.83 468.16 845.48 468.16S870.99 468.24 895.24 468.24S921.17 460.39 945 460.39S970.14 453.15 994.76 453.15S1021.22 473.41 1044.52 473.41S1069.66 458.23 1094.29 458.23S1120.25 460.08 1144.05 460.08S1169.16 453.19 1193.81 453.19S1219.44 460.65 1243.57 460.65S1269 457.03 1293.33 457.03S1319.71 468.83 1343.1 468.83S1369.35 464.49 1392.86 464.49L1363 716 L-100 716 Z;M-100 462.69C-74.84 467.59 -75.01 453.21 -50.24 453.21S-24.22 453.47 -0.48 453.47S26.1 474.35 49.29 474.35S74.69 457.83 99.05 457.83S125.35 462.81 148.81 462.81S174.49 467.01 198.57 467.01S224.46 467 248.33 467S273.28 456.74 298.1 456.74S323.34 463.94 347.86 463.94S373.09 471.81 397.62 471.81S422.65 468.99 447.38 468.99S473.13 462.77 497.14 462.77S523.02 471.14 546.9 471.14S572.76 468.02 596.67 468.02S622.64 471.05 646.43 471.05S671.95 458.66 696.19 458.66S721.28 461.86 745.95 461.86S772.51 459.3 795.71 459.3S822.1 469.25 845.48 469.25S871.87 459.42 895.24 459.42S921.64 471.31 945 471.31S969.95 457.69 994.76 457.69S1020.16 469.58 1044.52 469.58S1069.43 460.79 1094.29 460.79S1119.22 468.45 1144.05 468.45S1169.52 464.76 1193.81 464.76S1218.82 471.86 1243.57 471.86S1269.11 465.63 1293.33 465.63S1318.34 461.99 1343.1 461.99S1369.35 457.06 1392.86 457.06L1363 716 L-100 716 Z"></animate>
  <animateTransform attributeName="transform" type="translate" dur="20s" begin="-4s" repeatCount="indefinite" values="0;10;0" calcMode="spline" keySplines="0.3 0 0.7 1;0.3 0 0.7 1"></animateTransform>
</path><path d="M-100 486.58C-72.65 479.41 -73.32 485.09 -48.85 485.09S-21.83 474.76 2.31 474.76S29.18 480.42 53.46 480.42S79.15 472.06 104.62 472.06S130.3 493.1 155.77 493.1S181.44 475.05 206.92 475.05S233.51 488.96 258.08 488.96S285.21 481.06 309.23 481.06S336.25 479.94 360.38 479.94S386.62 480.51 411.54 480.51S438.45 494.33 462.69 494.33S489.66 480.19 513.85 480.19S540.69 496.31 565 496.31S591.99 484.97 616.15 484.97S642.92 483.78 667.31 483.78S693.7 480.13 718.46 480.13S744.25 497.17 769.62 497.17S795.43 486.51 820.77 486.51S847.23 497.51 871.92 497.51S897.71 470.2 923.08 470.2S950.28 490.91 974.23 490.91S1000.9 484.77 1025.38 484.77S1052.12 494.42 1076.54 494.42S1103.12 483 1127.69 483S1153.67 488.3 1178.85 488.3S1205.01 486.51 1230 486.51S1257.31 489.22 1281.15 489.22S1307.81 472.35 1332.31 472.35S1358.65 481.78 1383.46 481.78L1363 716 L-100 716 Z" fill="#383d74" stroke-width="0">
  <animate attributeName="d" dur="17.5s" repeatCount="indefinite" values="M-100 486.58C-72.65 479.41 -73.32 485.09 -48.85 485.09S-21.83 474.76 2.31 474.76S29.18 480.42 53.46 480.42S79.15 472.06 104.62 472.06S130.3 493.1 155.77 493.1S181.44 475.05 206.92 475.05S233.51 488.96 258.08 488.96S285.21 481.06 309.23 481.06S336.25 479.94 360.38 479.94S386.62 480.51 411.54 480.51S438.45 494.33 462.69 494.33S489.66 480.19 513.85 480.19S540.69 496.31 565 496.31S591.99 484.97 616.15 484.97S642.92 483.78 667.31 483.78S693.7 480.13 718.46 480.13S744.25 497.17 769.62 497.17S795.43 486.51 820.77 486.51S847.23 497.51 871.92 497.51S897.71 470.2 923.08 470.2S950.28 490.91 974.23 490.91S1000.9 484.77 1025.38 484.77S1052.12 494.42 1076.54 494.42S1103.12 483 1127.69 483S1153.67 488.3 1178.85 488.3S1205.01 486.51 1230 486.51S1257.31 489.22 1281.15 489.22S1307.81 472.35 1332.31 472.35S1358.65 481.78 1383.46 481.78L1363 716 L-100 716 Z;M-100 470.66C-73.7 484.74 -73.25 479.41 -48.85 479.41S-22.99 481.07 2.31 481.07S28.49 481.19 53.46 481.19S79.67 480.45 104.62 480.45S131.27 469.42 155.77 469.42S182.51 472.77 206.92 472.77S233.75 492.51 258.08 492.51S284.96 480.86 309.23 480.86S336 492.88 360.38 492.88S387.56 484.4 411.54 484.4S437.18 494.63 462.69 494.63S489.12 472.5 513.85 472.5S540.03 488.17 565 488.17S590.59 469.28 616.15 469.28S643.11 486.43 667.31 486.43S693.33 474.3 718.46 474.3S745.44 495.18 769.62 495.18S796.47 471.25 820.77 471.25S846.55 484.51 871.92 484.51S899.09 476.31 923.08 476.31S949.45 470.59 974.23 470.59S1000.62 473.15 1025.38 473.15S1051.51 486.82 1076.54 486.82S1102.68 495.41 1127.69 495.41S1154.24 487.05 1178.85 487.05S1204.63 481.94 1230 481.94S1256.05 493.54 1281.15 493.54S1307.92 482.7 1332.31 482.7S1359.53 495.75 1383.46 495.75L1363 716 L-100 716 Z;M-100 486.58C-72.65 479.41 -73.32 485.09 -48.85 485.09S-21.83 474.76 2.31 474.76S29.18 480.42 53.46 480.42S79.15 472.06 104.62 472.06S130.3 493.1 155.77 493.1S181.44 475.05 206.92 475.05S233.51 488.96 258.08 488.96S285.21 481.06 309.23 481.06S336.25 479.94 360.38 479.94S386.62 480.51 411.54 480.51S438.45 494.33 462.69 494.33S489.66 480.19 513.85 480.19S540.69 496.31 565 496.31S591.99 484.97 616.15 484.97S642.92 483.78 667.31 483.78S693.7 480.13 718.46 480.13S744.25 497.17 769.62 497.17S795.43 486.51 820.77 486.51S847.23 497.51 871.92 497.51S897.71 470.2 923.08 470.2S950.28 490.91 974.23 490.91S1000.9 484.77 1025.38 484.77S1052.12 494.42 1076.54 494.42S1103.12 483 1127.69 483S1153.67 488.3 1178.85 488.3S1205.01 486.51 1230 486.51S1257.31 489.22 1281.15 489.22S1307.81 472.35 1332.31 472.35S1358.65 481.78 1383.46 481.78L1363 716 L-100 716 Z"></animate>
  <animateTransform attributeName="transform" type="translate" dur="17.5s" begin="-5.25s" repeatCount="indefinite" values="0;10;0" calcMode="spline" keySplines="0.3 0 0.7 1;0.3 0 0.7 1"></animateTransform>
</path><path d="M-100 492.32C-72.05 503.46 -71.95 502.72 -47.37 502.72S-20.88 488.69 5.25 488.69S31.91 487.24 57.88 487.24S85.78 487.73 110.5 487.73S137.81 499.77 163.13 499.77S190.31 494.68 215.76 494.68S242.32 518.41 268.38 518.41S295.82 504.63 321.01 504.63S348.38 508.15 373.63 508.15S400.24 502.34 426.26 502.34S452.58 499.33 478.88 499.33S505.72 493.71 531.51 493.71S559.52 503.27 584.14 503.27S610.83 503.57 636.76 503.57S664.39 501.61 689.39 501.61S716.34 504.93 742.01 504.93S769.12 503.41 794.64 503.41S822.12 510.71 847.27 510.71S873.96 518.58 899.89 518.58S926.43 502 952.52 502S980.48 507.37 1005.14 507.37S1032.95 511.22 1057.77 511.22S1084.58 505.1 1110.4 505.1S1137.1 504.75 1163.02 504.75S1189.86 517.2 1215.65 517.2S1242.29 504.12 1268.27 504.12S1294.82 503.17 1320.9 503.17S1348.29 500.69 1373.53 500.69L1363 716 L-100 716 Z" fill="#3e4579" stroke-width="0">
  <animate attributeName="d" dur="15s" repeatCount="indefinite" values="M-100 492.32C-72.05 503.46 -71.95 502.72 -47.37 502.72S-20.88 488.69 5.25 488.69S31.91 487.24 57.88 487.24S85.78 487.73 110.5 487.73S137.81 499.77 163.13 499.77S190.31 494.68 215.76 494.68S242.32 518.41 268.38 518.41S295.82 504.63 321.01 504.63S348.38 508.15 373.63 508.15S400.24 502.34 426.26 502.34S452.58 499.33 478.88 499.33S505.72 493.71 531.51 493.71S559.52 503.27 584.14 503.27S610.83 503.57 636.76 503.57S664.39 501.61 689.39 501.61S716.34 504.93 742.01 504.93S769.12 503.41 794.64 503.41S822.12 510.71 847.27 510.71S873.96 518.58 899.89 518.58S926.43 502 952.52 502S980.48 507.37 1005.14 507.37S1032.95 511.22 1057.77 511.22S1084.58 505.1 1110.4 505.1S1137.1 504.75 1163.02 504.75S1189.86 517.2 1215.65 517.2S1242.29 504.12 1268.27 504.12S1294.82 503.17 1320.9 503.17S1348.29 500.69 1373.53 500.69L1363 716 L-100 716 Z;M-100 500.51C-73.15 493.82 -73.52 507.87 -47.37 507.87S-20.64 492.84 5.25 492.84S32.48 503.53 57.88 503.53S85.3 508.26 110.5 508.26S137.93 510.77 163.13 510.77S189.47 504.16 215.76 504.16S243.09 503.83 268.38 503.83S295.77 490.99 321.01 490.99S347.72 516.68 373.63 516.68S400.12 499.05 426.26 499.05S453.04 512.92 478.88 512.92S505.31 492.21 531.51 492.21S559.04 515.88 584.14 515.88S611.13 518.44 636.76 518.44S663.5 513.24 689.39 513.24S716.45 492.26 742.01 492.26S769.71 496.73 794.64 496.73S822.72 488.27 847.27 488.27S874.34 510.61 899.89 510.61S927.19 500.45 952.52 500.45S980.13 516.49 1005.14 516.49S1032.23 494.72 1057.77 494.72S1085.55 502.27 1110.4 502.27S1138.17 497 1163.02 497S1190.59 505.87 1215.65 505.87S1243.32 491.35 1268.27 491.35S1295.82 508.3 1320.9 508.3S1348.81 508.3 1373.53 508.3L1363 716 L-100 716 Z;M-100 492.32C-72.05 503.46 -71.95 502.72 -47.37 502.72S-20.88 488.69 5.25 488.69S31.91 487.24 57.88 487.24S85.78 487.73 110.5 487.73S137.81 499.77 163.13 499.77S190.31 494.68 215.76 494.68S242.32 518.41 268.38 518.41S295.82 504.63 321.01 504.63S348.38 508.15 373.63 508.15S400.24 502.34 426.26 502.34S452.58 499.33 478.88 499.33S505.72 493.71 531.51 493.71S559.52 503.27 584.14 503.27S610.83 503.57 636.76 503.57S664.39 501.61 689.39 501.61S716.34 504.93 742.01 504.93S769.12 503.41 794.64 503.41S822.12 510.71 847.27 510.71S873.96 518.58 899.89 518.58S926.43 502 952.52 502S980.48 507.37 1005.14 507.37S1032.95 511.22 1057.77 511.22S1084.58 505.1 1110.4 505.1S1137.1 504.75 1163.02 504.75S1189.86 517.2 1215.65 517.2S1242.29 504.12 1268.27 504.12S1294.82 503.17 1320.9 503.17S1348.29 500.69 1373.53 500.69L1363 716 L-100 716 Z"></animate>
  <animateTransform attributeName="transform" type="translate" dur="15s" begin="-6s" repeatCount="indefinite" values="0;10;0" calcMode="spline" keySplines="0.3 0 0.7 1;0.3 0 0.7 1"></animateTransform>
</path><path d="M-100 529.24C-71.21 530.68 -71.7 526.93 -45.81 526.93S-17.25 510.19 8.37 510.19S35.81 532.36 62.56 532.36S89.72 516.61 116.74 516.61S144.55 529.48 170.93 529.48S198.56 515.59 225.11 515.59S252.24 526.58 279.3 526.58S307.33 506.7 333.48 506.7S361.05 531.82 387.67 531.82S415.48 511.2 441.85 511.2S470.34 525.54 496.04 525.54S523.22 510.56 550.22 510.56S578.81 525.13 604.41 525.13S631.83 520.65 658.59 520.65S687.12 530.16 712.78 530.16S740.27 505.78 766.96 505.78S794.82 524.96 821.15 524.96S848.95 513.98 875.33 513.98S902.68 524.39 929.52 524.39S958.15 510.13 983.7 510.13S1011.01 523.77 1037.89 523.77S1066.61 509.27 1092.07 509.27S1120.82 524.3 1146.26 524.3S1174.57 521.55 1200.44 521.55S1227.9 528.09 1254.63 528.09S1282.37 535.58 1308.81 535.58S1336.62 527.28 1363 527.28S1391.03 509.54 1417.19 509.54L1363 716 L-100 716 Z" fill="#444c7e" stroke-width="0">
  <animate attributeName="d" dur="12.5s" repeatCount="indefinite" values="M-100 529.24C-71.21 530.68 -71.7 526.93 -45.81 526.93S-17.25 510.19 8.37 510.19S35.81 532.36 62.56 532.36S89.72 516.61 116.74 516.61S144.55 529.48 170.93 529.48S198.56 515.59 225.11 515.59S252.24 526.58 279.3 526.58S307.33 506.7 333.48 506.7S361.05 531.82 387.67 531.82S415.48 511.2 441.85 511.2S470.34 525.54 496.04 525.54S523.22 510.56 550.22 510.56S578.81 525.13 604.41 525.13S631.83 520.65 658.59 520.65S687.12 530.16 712.78 530.16S740.27 505.78 766.96 505.78S794.82 524.96 821.15 524.96S848.95 513.98 875.33 513.98S902.68 524.39 929.52 524.39S958.15 510.13 983.7 510.13S1011.01 523.77 1037.89 523.77S1066.61 509.27 1092.07 509.27S1120.82 524.3 1146.26 524.3S1174.57 521.55 1200.44 521.55S1227.9 528.09 1254.63 528.09S1282.37 535.58 1308.81 535.58S1336.62 527.28 1363 527.28S1391.03 509.54 1417.19 509.54L1363 716 L-100 716 Z;M-100 522.25C-72.71 510.35 -71.4 530.47 -45.81 530.47S-17.56 513.45 8.37 513.45S36.68 531.04 62.56 531.04S89.98 518.96 116.74 518.96S144.51 511.48 170.93 511.48S199.01 515.33 225.11 515.33S253.69 531.82 279.3 531.82S306.83 506.58 333.48 506.58S361.61 534.33 387.67 534.33S414.91 508.32 441.85 508.32S470.1 530.79 496.04 530.79S524.21 507.64 550.22 507.64S577.42 524.69 604.41 524.69S633.22 514.98 658.59 514.98S687.21 527.61 712.78 527.61S740.33 519.44 766.96 519.44S795.4 531.24 821.15 531.24S848.8 504.86 875.33 504.86S904.09 536.99 929.52 536.99S957.29 508.87 983.7 508.87S1011.5 539.68 1037.89 539.68S1065.23 519.19 1092.07 519.19S1120.15 532.58 1146.26 532.58S1174.49 520.57 1200.44 520.57S1228.83 523.01 1254.63 523.01S1282.82 520.9 1308.81 520.9S1335.93 529.84 1363 529.84S1391.82 522.35 1417.19 522.35L1363 716 L-100 716 Z;M-100 529.24C-71.21 530.68 -71.7 526.93 -45.81 526.93S-17.25 510.19 8.37 510.19S35.81 532.36 62.56 532.36S89.72 516.61 116.74 516.61S144.55 529.48 170.93 529.48S198.56 515.59 225.11 515.59S252.24 526.58 279.3 526.58S307.33 506.7 333.48 506.7S361.05 531.82 387.67 531.82S415.48 511.2 441.85 511.2S470.34 525.54 496.04 525.54S523.22 510.56 550.22 510.56S578.81 525.13 604.41 525.13S631.83 520.65 658.59 520.65S687.12 530.16 712.78 530.16S740.27 505.78 766.96 505.78S794.82 524.96 821.15 524.96S848.95 513.98 875.33 513.98S902.68 524.39 929.52 524.39S958.15 510.13 983.7 510.13S1011.01 523.77 1037.89 523.77S1066.61 509.27 1092.07 509.27S1120.82 524.3 1146.26 524.3S1174.57 521.55 1200.44 521.55S1227.9 528.09 1254.63 528.09S1282.37 535.58 1308.81 535.58S1336.62 527.28 1363 527.28S1391.03 509.54 1417.19 509.54L1363 716 L-100 716 Z"></animate>
  <animateTransform attributeName="transform" type="translate" dur="12.5s" begin="-6.25s" repeatCount="indefinite" values="0;10;0" calcMode="spline" keySplines="0.3 0 0.7 1;0.3 0 0.7 1"></animateTransform>
</path><path d="M-100 554.05C-71.42 546.3 -71.48 551.24 -44.16 551.24S-15.59 531.98 11.68 531.98S39.69 531.75 67.52 531.75S95.61 539.02 123.36 539.02S152.01 552.68 179.2 552.68S208.63 550.79 235.04 550.79S263.97 554.65 290.88 554.65S319.2 538.01 346.72 538.01S376.01 556.8 402.56 556.8S431.03 529.94 458.4 529.94S486.4 547.27 514.24 547.27S543.04 540.39 570.08 540.39S598.31 559.2 625.92 559.2S655.27 536.91 681.76 536.91S711.09 547.99 737.6 547.99S766.7 539.91 793.44 539.91S821.95 559.99 849.27 559.99S878.44 538.15 905.11 538.15S934.46 545.12 960.95 545.12S988.88 558.74 1016.79 558.74S1046.06 550.72 1072.63 550.72S1101.95 524.9 1128.47 524.9S1156.85 559.72 1184.31 559.72S1212.23 524.52 1240.15 524.52S1269.29 561.19 1295.99 561.19S1325.32 532.54 1351.83 532.54S1380.68 560.86 1407.67 560.86L1363 716 L-100 716 Z" fill="#4a5483" stroke-width="0">
  <animate attributeName="d" dur="10s" repeatCount="indefinite" values="M-100 554.05C-71.42 546.3 -71.48 551.24 -44.16 551.24S-15.59 531.98 11.68 531.98S39.69 531.75 67.52 531.75S95.61 539.02 123.36 539.02S152.01 552.68 179.2 552.68S208.63 550.79 235.04 550.79S263.97 554.65 290.88 554.65S319.2 538.01 346.72 538.01S376.01 556.8 402.56 556.8S431.03 529.94 458.4 529.94S486.4 547.27 514.24 547.27S543.04 540.39 570.08 540.39S598.31 559.2 625.92 559.2S655.27 536.91 681.76 536.91S711.09 547.99 737.6 547.99S766.7 539.91 793.44 539.91S821.95 559.99 849.27 559.99S878.44 538.15 905.11 538.15S934.46 545.12 960.95 545.12S988.88 558.74 1016.79 558.74S1046.06 550.72 1072.63 550.72S1101.95 524.9 1128.47 524.9S1156.85 559.72 1184.31 559.72S1212.23 524.52 1240.15 524.52S1269.29 561.19 1295.99 561.19S1325.32 532.54 1351.83 532.54S1380.68 560.86 1407.67 560.86L1363 716 L-100 716 Z;M-100 533.58C-70.33 530.88 -71.79 560.41 -44.16 560.41S-16.11 534.63 11.68 534.63S40.22 559.89 67.52 559.89S96.65 551.92 123.36 551.92S151.38 560.61 179.2 560.61S208.78 539.32 235.04 539.32S263.37 530.57 290.88 530.57S319.52 530.98 346.72 530.98S375.72 548.14 402.56 548.14S431.21 546.72 458.4 546.72S488.08 555.19 514.24 555.19S543.16 524.22 570.08 524.22S598.88 544.94 625.92 544.94S654.78 528.06 681.76 528.06S710.5 556.64 737.6 556.64S766.53 557.15 793.44 557.15S821.81 548.83 849.27 548.83S877.98 526.84 905.11 526.84S933.44 535.38 960.95 535.38S989.54 531.7 1016.79 531.7S1044.72 557.28 1072.63 557.28S1101.48 538.37 1128.47 538.37S1157.75 560.33 1184.31 560.33S1212.5 535.72 1240.15 535.72S1268.11 560.27 1295.99 560.27S1324.87 525.99 1351.83 525.99S1379.9 550.99 1407.67 550.99L1363 716 L-100 716 Z;M-100 554.05C-71.42 546.3 -71.48 551.24 -44.16 551.24S-15.59 531.98 11.68 531.98S39.69 531.75 67.52 531.75S95.61 539.02 123.36 539.02S152.01 552.68 179.2 552.68S208.63 550.79 235.04 550.79S263.97 554.65 290.88 554.65S319.2 538.01 346.72 538.01S376.01 556.8 402.56 556.8S431.03 529.94 458.4 529.94S486.4 547.27 514.24 547.27S543.04 540.39 570.08 540.39S598.31 559.2 625.92 559.2S655.27 536.91 681.76 536.91S711.09 547.99 737.6 547.99S766.7 539.91 793.44 539.91S821.95 559.99 849.27 559.99S878.44 538.15 905.11 538.15S934.46 545.12 960.95 545.12S988.88 558.74 1016.79 558.74S1046.06 550.72 1072.63 550.72S1101.95 524.9 1128.47 524.9S1156.85 559.72 1184.31 559.72S1212.23 524.52 1240.15 524.52S1269.29 561.19 1295.99 561.19S1325.32 532.54 1351.83 532.54S1380.68 560.86 1407.67 560.86L1363 716 L-100 716 Z"></animate>
  <animateTransform attributeName="transform" type="translate" dur="10s" begin="-6s" repeatCount="indefinite" values="0;10;0" calcMode="spline" keySplines="0.3 0 0.7 1;0.3 0 0.7 1"></animateTransform>
</path><path d="M-100 550.46C-70.39 547.74 -70.03 577.05 -42.4 577.05S-12.77 556.21 15.2 556.21S45.36 569 72.8 569S101.66 543.13 130.39 543.13S159.88 579.13 187.99 579.13S217.02 544.47 245.59 544.47S275.1 565.83 303.19 565.83S332.62 558.19 360.79 558.19S391.15 574.58 418.39 574.58S448.28 548.03 475.98 548.03S504.91 577.82 533.58 577.82S563.97 543.44 591.18 543.44S621.75 580.7 648.78 580.7S678.03 557.52 706.38 557.52S736.72 580.82 763.98 580.82S792.93 545.76 821.57 545.76S851.95 568.36 879.17 568.36S908.61 556.24 936.77 556.24S966.12 571.86 994.37 571.86S1024.93 546.55 1051.97 546.55S1081.23 567.26 1109.57 567.26S1139.61 552.01 1167.17 552.01S1197.1 576.11 1224.76 576.11S1254.89 551.4 1282.36 551.4S1312.13 571.29 1339.96 571.29S1368.81 548.84 1397.56 548.84L1363 716 L-100 716 Z" fill="#515c87" stroke-width="0">
  <animate attributeName="d" dur="7.5s" repeatCount="indefinite" values="M-100 550.46C-70.39 547.74 -70.03 577.05 -42.4 577.05S-12.77 556.21 15.2 556.21S45.36 569 72.8 569S101.66 543.13 130.39 543.13S159.88 579.13 187.99 579.13S217.02 544.47 245.59 544.47S275.1 565.83 303.19 565.83S332.62 558.19 360.79 558.19S391.15 574.58 418.39 574.58S448.28 548.03 475.98 548.03S504.91 577.82 533.58 577.82S563.97 543.44 591.18 543.44S621.75 580.7 648.78 580.7S678.03 557.52 706.38 557.52S736.72 580.82 763.98 580.82S792.93 545.76 821.57 545.76S851.95 568.36 879.17 568.36S908.61 556.24 936.77 556.24S966.12 571.86 994.37 571.86S1024.93 546.55 1051.97 546.55S1081.23 567.26 1109.57 567.26S1139.61 552.01 1167.17 552.01S1197.1 576.11 1224.76 576.11S1254.89 551.4 1282.36 551.4S1312.13 571.29 1339.96 571.29S1368.81 548.84 1397.56 548.84L1363 716 L-100 716 Z;M-100 549.39C-70.54 541.88 -69.86 567.59 -42.4 567.59S-12.54 556.8 15.2 556.8S45.44 581.13 72.8 581.13S101.97 542.42 130.39 542.42S159.99 580.25 187.99 580.25S218.4 558.45 245.59 558.45S275.05 542.69 303.19 542.69S333.44 550.99 360.79 550.99S391.14 566.59 418.39 566.59S447.21 554.96 475.98 554.96S505.98 542.79 533.58 542.79S563.72 544 591.18 544S620.41 579.86 648.78 579.86S678.03 541.33 706.38 541.33S735.45 574.6 763.98 574.6S793.77 554.34 821.57 554.34S850.73 582.37 879.17 582.37S908.1 557.96 936.77 557.96S966.97 582.58 994.37 582.58S1024.08 557.05 1051.97 557.05S1081.85 546.44 1109.57 546.44S1138.83 546.93 1167.17 546.93S1197.47 570.79 1224.76 570.79S1254.44 542.45 1282.36 542.45S1312.29 574.29 1339.96 574.29S1369.03 554.7 1397.56 554.7L1363 716 L-100 716 Z;M-100 550.46C-70.39 547.74 -70.03 577.05 -42.4 577.05S-12.77 556.21 15.2 556.21S45.36 569 72.8 569S101.66 543.13 130.39 543.13S159.88 579.13 187.99 579.13S217.02 544.47 245.59 544.47S275.1 565.83 303.19 565.83S332.62 558.19 360.79 558.19S391.15 574.58 418.39 574.58S448.28 548.03 475.98 548.03S504.91 577.82 533.58 577.82S563.97 543.44 591.18 543.44S621.75 580.7 648.78 580.7S678.03 557.52 706.38 557.52S736.72 580.82 763.98 580.82S792.93 545.76 821.57 545.76S851.95 568.36 879.17 568.36S908.61 556.24 936.77 556.24S966.12 571.86 994.37 571.86S1024.93 546.55 1051.97 546.55S1081.23 567.26 1109.57 567.26S1139.61 552.01 1167.17 552.01S1197.1 576.11 1224.76 576.11S1254.89 551.4 1282.36 551.4S1312.13 571.29 1339.96 571.29S1368.81 548.84 1397.56 548.84L1363 716 L-100 716 Z"></animate>
  <animateTransform attributeName="transform" type="translate" dur="7.5s" begin="-5.25s" repeatCount="indefinite" values="0;10;0" calcMode="spline" keySplines="0.3 0 0.7 1;0.3 0 0.7 1"></animateTransform>
</path><path d="M-100 561.6C-69.64 567.41 -70 567.4 -40.53 567.4S-10.1 575.48 18.94 575.48S49.08 598.09 78.41 598.09S108.44 561.45 137.89 561.45S167.96 601.16 197.36 601.16S228.66 561.42 256.83 561.42S286.97 559.6 316.3 559.6S347.65 596.62 375.77 596.62S406.79 598.1 435.24 598.1S465.9 572.94 494.72 572.94S524.95 596.61 554.19 596.61S584.21 562.37 613.66 562.37S643.78 588.15 673.13 588.15S704.14 561.69 732.6 561.69S763.06 590.45 792.07 590.45S821.83 562.21 851.54 562.21S881.36 596.21 911.02 596.21S941.25 575.72 970.49 575.72S1000.7 603.32 1029.96 603.32S1060.56 560.06 1089.43 560.06S1120.16 593.86 1148.9 593.86S1180.03 568.88 1208.37 568.88S1239.43 602.49 1267.85 602.49S1298.75 565 1327.32 565S1358.47 600.2 1386.79 600.2L1363 716 L-100 716 Z" fill="#57638c" stroke-width="0">
  <animate attributeName="d" dur="5s" repeatCount="indefinite" values="M-100 561.6C-69.64 567.41 -70 567.4 -40.53 567.4S-10.1 575.48 18.94 575.48S49.08 598.09 78.41 598.09S108.44 561.45 137.89 561.45S167.96 601.16 197.36 601.16S228.66 561.42 256.83 561.42S286.97 559.6 316.3 559.6S347.65 596.62 375.77 596.62S406.79 598.1 435.24 598.1S465.9 572.94 494.72 572.94S524.95 596.61 554.19 596.61S584.21 562.37 613.66 562.37S643.78 588.15 673.13 588.15S704.14 561.69 732.6 561.69S763.06 590.45 792.07 590.45S821.83 562.21 851.54 562.21S881.36 596.21 911.02 596.21S941.25 575.72 970.49 575.72S1000.7 603.32 1029.96 603.32S1060.56 560.06 1089.43 560.06S1120.16 593.86 1148.9 593.86S1180.03 568.88 1208.37 568.88S1239.43 602.49 1267.85 602.49S1298.75 565 1327.32 565S1358.47 600.2 1386.79 600.2L1363 716 L-100 716 Z;M-100 567.27C-69.58 562.84 -68.65 591.78 -40.53 591.78S-9.22 574.61 18.94 574.61S49.89 593.18 78.41 593.18S108.67 569.35 137.89 569.35S168.11 604.96 197.36 604.96S228.86 564.59 256.83 564.59S287.47 594.43 316.3 594.43S347.55 594.99 375.77 594.99S407.15 604.23 435.24 604.23S466.42 571.41 494.72 571.41S524.74 563.03 554.19 563.03S584 562.07 613.66 562.07S644.61 588.23 673.13 588.23S703.86 566.44 732.6 566.44S762.9 598.57 792.07 598.57S822.81 604.67 851.54 604.67S882.9 593.92 911.02 593.92S941.18 560.51 970.49 560.51S1001.55 599.47 1029.96 599.47S1061.03 569.89 1089.43 569.89S1119.9 592.84 1148.9 592.84S1179.45 562.97 1208.37 562.97S1239.65 598.76 1267.85 598.76S1297.66 573.23 1327.32 573.23S1358.18 589.7 1386.79 589.7L1363 716 L-100 716 Z;M-100 561.6C-69.64 567.41 -70 567.4 -40.53 567.4S-10.1 575.48 18.94 575.48S49.08 598.09 78.41 598.09S108.44 561.45 137.89 561.45S167.96 601.16 197.36 601.16S228.66 561.42 256.83 561.42S286.97 559.6 316.3 559.6S347.65 596.62 375.77 596.62S406.79 598.1 435.24 598.1S465.9 572.94 494.72 572.94S524.95 596.61 554.19 596.61S584.21 562.37 613.66 562.37S643.78 588.15 673.13 588.15S704.14 561.69 732.6 561.69S763.06 590.45 792.07 590.45S821.83 562.21 851.54 562.21S881.36 596.21 911.02 596.21S941.25 575.72 970.49 575.72S1000.7 603.32 1029.96 603.32S1060.56 560.06 1089.43 560.06S1120.16 593.86 1148.9 593.86S1180.03 568.88 1208.37 568.88S1239.43 602.49 1267.85 602.49S1298.75 565 1327.32 565S1358.47 600.2 1386.79 600.2L1363 716 L-100 716 Z"></animate>
  <animateTransform attributeName="transform" type="translate" dur="5s" begin="-4s" repeatCount="indefinite" values="0;10;0" calcMode="spline" keySplines="0.3 0 0.7 1;0.3 0 0.7 1"></animateTransform>
</path><path d="M-100 584.98C-67.57 579.83 -68.39 611.55 -38.53 611.55S-6.92 587.73 22.94 587.73S53.99 624.89 84.41 624.89S116.36 588.04 145.88 588.04S178.13 585.69 207.35 585.69S239.65 592.81 268.82 592.81S299.65 610.52 330.29 610.52S361.07 590.17 391.76 590.17S424.02 615.81 453.24 615.81S485.17 588.78 514.71 588.78S546.02 620.97 576.18 620.97S608.66 586.38 637.65 586.38S669.35 620.27 699.12 620.27S730.6 584.72 760.59 584.72S792.01 609.28 822.06 609.28S853.8 592.01 883.53 592.01S914.29 620.93 945 620.93S977.18 593.86 1006.47 593.86S1037.24 611.4 1067.94 611.4S1099.99 588.16 1129.41 588.16S1161.19 620.93 1190.88 620.93S1221.76 583.87 1252.35 583.87S1284.24 610.09 1313.82 610.09S1344.61 582.43 1375.29 582.43L1363 716 L-100 716 Z" fill="#5f6b91" stroke-width="0">
  <animate attributeName="d" dur="2.5s" repeatCount="indefinite" values="M-100 584.98C-67.57 579.83 -68.39 611.55 -38.53 611.55S-6.92 587.73 22.94 587.73S53.99 624.89 84.41 624.89S116.36 588.04 145.88 588.04S178.13 585.69 207.35 585.69S239.65 592.81 268.82 592.81S299.65 610.52 330.29 610.52S361.07 590.17 391.76 590.17S424.02 615.81 453.24 615.81S485.17 588.78 514.71 588.78S546.02 620.97 576.18 620.97S608.66 586.38 637.65 586.38S669.35 620.27 699.12 620.27S730.6 584.72 760.59 584.72S792.01 609.28 822.06 609.28S853.8 592.01 883.53 592.01S914.29 620.93 945 620.93S977.18 593.86 1006.47 593.86S1037.24 611.4 1067.94 611.4S1099.99 588.16 1129.41 588.16S1161.19 620.93 1190.88 620.93S1221.76 583.87 1252.35 583.87S1284.24 610.09 1313.82 610.09S1344.61 582.43 1375.29 582.43L1363 716 L-100 716 Z;M-100 576.79C-68.75 589.53 -68.91 584.86 -38.53 584.86S-7.33 591.56 22.94 591.56S54.94 610.82 84.41 610.82S116.56 588.94 145.88 588.94S178.36 619.64 207.35 619.64S238.96 590.34 268.82 590.34S300.09 625.65 330.29 625.65S361.85 593.54 391.76 593.54S424.03 625.31 453.24 625.31S484.83 624.95 514.71 624.95S545.93 610.56 576.18 610.56S607.4 579.12 637.65 579.12S669.11 609.46 699.12 609.46S731.38 577.77 760.59 577.77S792.54 590.18 822.06 590.18S854.27 589.29 883.53 589.29S915.07 591.29 945 591.29S977.17 591.9 1006.47 591.9S1037.6 609.4 1067.94 609.4S1100.3 589.4 1129.41 589.4S1160.65 613.43 1190.88 613.43S1222.21 586.43 1252.35 586.43S1284.66 617.65 1313.82 617.65S1345.94 577.53 1375.29 577.53L1363 716 L-100 716 Z;M-100 584.98C-67.57 579.83 -68.39 611.55 -38.53 611.55S-6.92 587.73 22.94 587.73S53.99 624.89 84.41 624.89S116.36 588.04 145.88 588.04S178.13 585.69 207.35 585.69S239.65 592.81 268.82 592.81S299.65 610.52 330.29 610.52S361.07 590.17 391.76 590.17S424.02 615.81 453.24 615.81S485.17 588.78 514.71 588.78S546.02 620.97 576.18 620.97S608.66 586.38 637.65 586.38S669.35 620.27 699.12 620.27S730.6 584.72 760.59 584.72S792.01 609.28 822.06 609.28S853.8 592.01 883.53 592.01S914.29 620.93 945 620.93S977.18 593.86 1006.47 593.86S1037.24 611.4 1067.94 611.4S1099.99 588.16 1129.41 588.16S1161.19 620.93 1190.88 620.93S1221.76 583.87 1252.35 583.87S1284.24 610.09 1313.82 610.09S1344.61 582.43 1375.29 582.43L1363 716 L-100 716 Z"></animate>
  <animateTransform attributeName="transform" type="translate" dur="2.5s" begin="-2.25s" repeatCount="indefinite" values="0;10;0" calcMode="spline" keySplines="0.3 0 0.7 1;0.3 0 0.7 1"></animateTransform>
</path></g>
</svg>