<?xml version="1.0" encoding="utf-8"?><svg xmlns="http://www.w3.org/2000/svg" xmlns:xlink="http://www.w3.org/1999/xlink" width="1440" height="820" preserveAspectRatio="xMidYMid" viewBox="0 0 1440 820" style="z-index:1;margin-right:-2px;display:block;background-repeat-y:initial;background-repeat-x:initial;background-color:rgb(241, 242, 243);animation-play-state:paused" ><g transform="translate(720,410) scale(1,1) translate(-720,-410)" style="transform:matrix(1, 0, 0, 1, 0, 0);animation-play-state:paused" ><linearGradient id="lg-0.274314736012776" x1="0" x2="1" y1="0" y2="0" style="animation-play-state:paused" ><stop stop-color="#1d91a5" offset="0" style="animation-play-state:paused" ></stop>

  
<stop stop-color="#689cc5" offset="1" style="animation-play-state:paused" ></stop></linearGradient>
<path d="M 0 0 L 0 773.603 Q 144 651.633 288 626.331 T 576 630.275 T 864 467.159 T 1152 342.257 T 1440 331.89 L 1440 0 Z" fill="url(#lg-0.274314736012776)" opacity="0.69" style="opacity:0.69;animation-play-state:paused" ></path>
<path d="M 0 0 L 0 741.285 Q 144 768.183 288 731.265 T 576 601.205 T 864 510.2 T 1152 434.629 T 1440 348.341 L 1440 0 Z" fill="url(#lg-0.274314736012776)" opacity="0.69" style="opacity:0.69;animation-play-state:paused" ></path>
<path d="M 0 0 L 0 702.281 Q 144 708.386 288 686.508 T 576 518.051 T 864 483.085 T 1152 429.726 T 1440 369.431 L 1440 0 Z" fill="url(#lg-0.274314736012776)" opacity="0.69" style="opacity:0.69;animation-play-state:paused" ></path>
<path d="M 0 0 L 0 788.915 Q 144 749.949 288 713.312 T 576 599.217 T 864 531.707 T 1152 422.092 T 1440 270.125 L 1440 0 Z" fill="url(#lg-0.274314736012776)" opacity="0.69" style="opacity:0.69;animation-play-state:paused" ></path>
<path d="M 0 0 L 0 726.245 Q 144 738.08 288 699.507 T 576 602.733 T 864 492.135 T 1152 442.918 T 1440 335.464 L 1440 0 Z" fill="url(#lg-0.274314736012776)" opacity="0.69" style="opacity:0.69;animation-play-state:paused" ></path></g></svg>