<?xml version="1.0" encoding="utf-8"?><svg xmlns="http://www.w3.org/2000/svg" xmlns:xlink="http://www.w3.org/1999/xlink" width="1255" height="820" preserveAspectRatio="xMidYMid" viewBox="0 0 1255 820" style="z-index:1;margin-right:-2px;display:block;background-repeat-y:initial;background-repeat-x:initial;background-color:rgb(241, 242, 243);animation-play-state:paused" ><g transform="translate(627.5,410) scale(1,1) translate(-627.5,-410)" style="transform:matrix(1, 0, 0, 1, 0, 0);animation-play-state:paused" ><linearGradient id="lg-0.9312365559965945" x1="0" x2="1" y1="0" y2="0" style="animation-play-state:paused" ><stop stop-color="#175da3" offset="0" style="animation-play-state:paused" ></stop>

  
<stop stop-color="rgba(29, 41, 129, 0.8488508064516129)" offset="1" style="animation-play-state:paused" ></stop></linearGradient>
<path d="M 0 0 L 0 451.733 Q 125.5 475.58 251 440.699 T 502 369.113 T 753 355.923 T 1004 276.381 T 1255 193.223 L 1255 0 Z" fill="url(#lg-0.9312365559965945)" opacity="0.69" style="opacity:0.69;animation-play-state:paused" ></path>
<path d="M 0 0 L 0 445.671 Q 125.5 438.957 251 416.579 T 502 366.299 T 753 359.297 T 1004 304.533 T 1255 273.249 L 1255 0 Z" fill="url(#lg-0.9312365559965945)" opacity="0.69" style="opacity:0.69;animation-play-state:paused" ></path>
<path d="M 0 0 L 0 466.778 Q 125.5 469.606 251 447.2 T 502 360.219 T 753 304.64 T 1004 272.494 T 1255 278.664 L 1255 0 Z" fill="url(#lg-0.9312365559965945)" opacity="0.69" style="opacity:0.69;animation-play-state:paused" ></path>
<path d="M 0 0 L 0 470.183 Q 125.5 452.641 251 420.128 T 502 406.209 T 753 303.589 T 1004 237.543 T 1255 186.91 L 1255 0 Z" fill="url(#lg-0.9312365559965945)" opacity="0.69" style="opacity:0.69;animation-play-state:paused" ></path>
<path d="M 0 0 L 0 499.991 Q 125.5 407.925 251 371.085 T 502 348.734 T 753 292.272 T 1004 223.246 T 1255 187.22 L 1255 0 Z" fill="url(#lg-0.9312365559965945)" opacity="0.69" style="opacity:0.69;animation-play-state:paused" ></path></g></svg>